<svg xmlns="http://www.w3.org/2000/svg" xmlns:xlink="http://www.w3.org/1999/xlink" viewBox="0 0 1100 746"><defs><style>.cls-1{mask:url(#mask);filter:url(#luminosity-noclip-2);}.cls-2,.cls-8,.cls-9{mix-blend-mode:multiply;}.cls-2{fill:url(#linear-gradient);}.cls-3{fill:none;}.cls-4{isolation:isolate;}.cls-5,.cls-7{fill:#676767;}.cls-6,.cls-82{fill:#fff;}.cls-7{opacity:0.43;}.cls-8,.cls-83{opacity:0.4;}.cls-9{opacity:0.3;}.cls-10{fill:#fabe82;}.cls-11{fill:#f49f60;}.cls-12{fill:#968730;}.cls-13{fill:#ea733d;}.cls-14{fill:#7f3463;}.cls-15{fill:#f16922;}.cls-16{fill:#875f54;}.cls-17{fill:#fbcd0f;}.cls-18{fill:#d3ab05;}.cls-19{fill:#ffe35a;}.cls-20{fill:#8f3b00;}.cls-21{fill:#562d1e;}.cls-22{fill:#3f1e14;}.cls-23{mask:url(#mask-2);}.cls-24{clip-path:url(#clip-path);}.cls-25{fill:#c04b00;}.cls-26{fill:#c04a00;}.cls-27{fill:#bf4900;}.cls-28{fill:#bf4800;}.cls-29{fill:#be4700;}.cls-30{fill:#be4600;}.cls-31{fill:#be4500;}.cls-32{fill:#bd4400;}.cls-33{fill:#bd4300;}.cls-34{fill:#bc4200;}.cls-35{fill:#bc4100;}.cls-36{fill:#bc4000;}.cls-37{fill:#bb3e00;}.cls-38{fill:#bb3d00;}.cls-39{fill:#ba3c00;}.cls-40{fill:#ba3b00;}.cls-41{fill:#b93a00;}.cls-42{fill:#b93900;}.cls-43{fill:#b93800;}.cls-44{fill:#b83700;}.cls-45{fill:#b83600;}.cls-46{fill:#ffe7d7;}.cls-47{fill:#472d18;}.cls-48{fill:#e29352;}.cls-49{fill:#4f351d;}.cls-50{fill:#ffead9;}.cls-51{fill:#d65821;}.cls-52{fill:#177cde;}.cls-53{fill:#eab991;}.cls-54{fill:#fbc23b;}.cls-55{fill:#1c8dde;}.cls-56{fill:#fde138;}.cls-57{fill:#eecfaf;}.cls-58{fill:#0e4f94;}.cls-59{fill:#c11a26;}.cls-60{fill:#e41e26;}.cls-61{fill:#f5a909;}.cls-62{fill:#df4e4b;}.cls-63{fill:#f9be50;}.cls-64{fill:#312400;}.cls-65{fill:#e97b2b;}.cls-66{fill:#ae805a;}.cls-67{fill:#ff5b00;}.cls-68{fill:#7bd503;}.cls-69{fill:#05bcde;}.cls-70{fill:#fec70a;}.cls-71{fill:#7d4a9d;}.cls-72{fill:#74ab00;}.cls-73{fill:#88c800;}.cls-74{fill:#f13065;}.cls-75{fill:#ffa002;}.cls-76{fill:#a0eef9;}.cls-77{fill:#fc4815;}.cls-78{fill:#02b9bf;}.cls-79{fill:#95b41b;}.cls-80{fill:#98b21b;}.cls-81{fill:#ffa210;}.cls-82{opacity:0.6;}.cls-84{fill:#ce4602;}.cls-85{filter:url(#luminosity-noclip);}</style><filter id="luminosity-noclip" x="521.76" y="-8565" width="33.51" height="32766" filterUnits="userSpaceOnUse" color-interpolation-filters="sRGB"><feFlood flood-color="#fff" result="bg"/><feBlend in="SourceGraphic" in2="bg"/></filter><mask id="mask" x="521.76" y="-8565" width="33.51" height="32766" maskUnits="userSpaceOnUse"><g class="cls-85"/></mask><linearGradient id="linear-gradient" x1="487.12" y1="197.18" x2="490.91" y2="207.56" gradientTransform="translate(125.78 -111.79) rotate(16.14)" gradientUnits="userSpaceOnUse"><stop offset="0"/><stop offset="1" stop-color="#fff"/></linearGradient><filter id="luminosity-noclip-2" x="518.67" y="191.7" width="36.94" height="30.09" filterUnits="userSpaceOnUse" color-interpolation-filters="sRGB"><feFlood flood-color="#fff" result="bg"/><feBlend in="SourceGraphic" in2="bg"/></filter><mask id="mask-2" x="518.67" y="191.7" width="36.94" height="30.09" maskUnits="userSpaceOnUse"><g class="cls-1"><path class="cls-2" d="M522.31,209.39c1,3.55,5.52,11.58,16.85,12,9.1.37,15.74-4.7,16.1-11.39s-4.39-14.83-12.81-16.58S518.67,195.88,522.31,209.39Z"/></g></mask><clipPath id="clip-path"><path class="cls-3" d="M522.31,209.39c1,3.55,5.52,11.58,16.85,12,9.1.37,15.74-4.7,16.1-11.39s-4.39-14.83-12.81-16.58S518.67,195.88,522.31,209.39Z"/></clipPath></defs><g class="cls-4"><g id="Layer_2" data-name="Layer 2"><g id="Layer_1-2" data-name="Layer 1"><rect class="cls-3" width="1100" height="746"/><path class="cls-5" d="M711.61,436.58a72.88,72.88,0,0,1-19.26-2.53,22,22,0,0,1-15.72-17.31,10.87,10.87,0,0,0-1.74-.13,9.44,9.44,0,0,0-3.78.7l-.33.14a7.75,7.75,0,0,0-2.24,1.6c-.15.15-.27.29-.4.43l-8,9.56L651,414.44a322.8,322.8,0,0,1-40.48,6.05l-10.19,1,2.62-98.14-10.15-13.52H477.66l-8.29,11-1.74,82-.32,13.75h-8.87a60.44,60.44,0,0,0-9.65.66,19.5,19.5,0,0,0-6.43,2.09,10.43,10.43,0,0,0-2.15,1.59l-7.34,7-6.16-8.08-.21-.27a8.54,8.54,0,0,0-6.25-3l-7.78-.69-3.9,5.84-.91.31-6.11,6.4-6.56-7c-.2-.22-.41-.42-.61-.62a17.07,17.07,0,0,0-2.95-2.27A21.78,21.78,0,0,1,377,429.12a79.14,79.14,0,0,1-16.12,1.66,72.38,72.38,0,0,1-19.27-2.54,21.94,21.94,0,0,1-16-20.67L325,374a21.91,21.91,0,0,1,.75-6.18,32.14,32.14,0,0,1-6.37-17.77l0-.4v-.59a18,18,0,0,1,3.62-11l16-26a25.11,25.11,0,0,1,42.75,0l16,26a17.5,17.5,0,0,1,1.37,2.12l9.28-13.87-.94-21.23a21.84,21.84,0,0,1-3.14-10.35L403,266a32.63,32.63,0,0,1-6.5-17.91l0-.42v-.59a18.05,18.05,0,0,1,3.62-11l16-26a25.12,25.12,0,0,1,42.75,0l16.05,26.05a18,18,0,0,1,3.57,10.95v.52l-.05.6a33,33,0,0,1-1.12,6.85H596c.51,0,1,0,1.53,0a33.63,33.63,0,0,1-2.3-10.45l0-.65v-.35a18,18,0,0,1,3.56-10.94l16.06-26.06a25.11,25.11,0,0,1,42.75,0l16,26a17.86,17.86,0,0,1,3.58,11l0,.9a33.36,33.36,0,0,1-5.35,16.39,21.24,21.24,0,0,1,0,2.65l-2.52,32.77a22.15,22.15,0,0,1-2.78,9.1l-1.91,30.39,7.25,11.58a19,19,0,0,1,1.89-3.13l16-26a25.11,25.11,0,0,1,42.76,0l16,26a17.91,17.91,0,0,1,3.58,11v.52l0,.57a32.25,32.25,0,0,1-6.56,17.92,21.57,21.57,0,0,1,.93,7.22l-1.32,32.87a21.8,21.8,0,0,1-17.31,20.51A80.77,80.77,0,0,1,711.61,436.58Z"/><path class="cls-6" d="M751.19,355.31v.52l0,.51a31.16,31.16,0,0,1-6.65,17.81,21.09,21.09,0,0,1,1,7.36l-1.32,32.87a21,21,0,0,1-16.65,19.71,79.31,79.31,0,0,1-15.95,1.64,72.1,72.1,0,0,1-19-2.5A21.21,21.21,0,0,1,677.37,416a11.65,11.65,0,0,0-2.48-.25,10.39,10.39,0,0,0-4.11.76l-.32.14a8.73,8.73,0,0,0-2.51,1.78c-.17.17-.31.32-.45.48l-7.27,8.68-8.84-14.13a319.56,319.56,0,0,1-41,6.17l-9.25.87L603.79,323,593.21,309h-116l-8.71,11.6-1.74,82.29-.31,12.93h-8a61.2,61.2,0,0,0-9.79.67,20.42,20.42,0,0,0-6.71,2.18,11.84,11.84,0,0,0-2.32,1.72L433,426.72l-5.59-7.33-.23-.29a9.42,9.42,0,0,0-6.82-3.27l-7.15-.64-.08-1.68L408,421.12l-.84.28-5.63,5.9-5.95-6.39c-.21-.22-.43-.43-.65-.64a17.19,17.19,0,0,0-3.37-2.55l-.49-.28a21,21,0,0,1-14.3,10.86,78.62,78.62,0,0,1-15.95,1.64,71.59,71.59,0,0,1-19-2.51,21.12,21.12,0,0,1-15.43-19.88L325.8,374a20.74,20.74,0,0,1,.84-6.34A31.43,31.43,0,0,1,320.18,350l0-.42v-.52a17.18,17.18,0,0,1,3.44-10.51l16.05-26.05a24.27,24.27,0,0,1,41.31,0l16,26a16.84,16.84,0,0,1,2,3.36l10.25-15.31-1-21.73a20.87,20.87,0,0,1-3.13-10.13l-1.25-29.09A31.55,31.55,0,0,1,397.38,248l0-.44v-.52a17.2,17.2,0,0,1,3.44-10.51l16-26.05a24.28,24.28,0,0,1,41.31,0l16.05,26.05a17.21,17.21,0,0,1,3.45,10.51v.52l0,.53a32.94,32.94,0,0,1-1.4,7.76H596a24.21,24.21,0,0,1,2.84.16,33.4,33.4,0,0,1-2.77-11.46l0-.63v-.32a17.2,17.2,0,0,1,3.38-10.44l16.1-26.12a24.27,24.27,0,0,1,41.32,0l16,26a17,17,0,0,1,3.46,10.53v.88a32.21,32.21,0,0,1-5.37,16.17,19,19,0,0,1,0,2.82l-2.52,32.77a21.21,21.21,0,0,1-2.77,8.93L663.68,336l8.26,13.18a17.18,17.18,0,0,1,2.42-4.44l16-26a24.27,24.27,0,0,1,41.32,0l16,26A17.12,17.12,0,0,1,751.19,355.31Z"/><path class="cls-7" d="M770.7,495.11c-5.4,4.88-13.08,8.53-23.46,11.19a73.84,73.84,0,0,1-13.69,2.3c-.91.07-1.9.11-3,.11a37.66,37.66,0,0,1-12.47-2,32.68,32.68,0,0,1-4.33-1.87l-1.64-.85-1.74.63c-1.16.42-2.36.81-3.55,1.15a69.16,69.16,0,0,1-18.55,2.39A52.19,52.19,0,0,1,676.67,507c-.63-.15-1.28-.32-1.9-.5l-1.12-.33-1.12.3a32.73,32.73,0,0,1-11.4.84l-3.84-.38-.76,4A36.76,36.76,0,0,1,651.41,524l-.95,1.47.37,1.71a33.89,33.89,0,0,1,0,13.58,38.39,38.39,0,0,1-5.55,13.92A32.87,32.87,0,0,1,632.54,566,39.47,39.47,0,0,1,617.13,570c-1,.06-1.94.09-2.89.09A66.6,66.6,0,0,1,602,568.78c-2.35-.46-4.63-1-6.76-1.6l-1.23-.36-1.22.39a71.8,71.8,0,0,1-14.49,3,61.45,61.45,0,0,1-6.29.35,45,45,0,0,1-5.39-.32,36.42,36.42,0,0,1-4.91-1l-.92-.25-.94.17a33.37,33.37,0,0,1-11,.12l-.66-.1-.66.11a33.4,33.4,0,0,1-5.13.39,32.87,32.87,0,0,1-12.2-2.32l-1.59-.63-1.59.65a30.57,30.57,0,0,1-11.86,2.3,31,31,0,0,1-14.23-3.32l-1.76-.9-1.82.78a25.82,25.82,0,0,1-4.36,1.42c-1.89.43-4,.83-6.24,1.16-1.68.25-3.55.45-5.56.62-.67.06-1.35.08-2,.08A25.4,25.4,0,0,1,458.56,559l-.86-1.18-1.39-.42c-3.73-1.08-7.14-2.19-10.15-3.28l-.55-.2a32.67,32.67,0,0,1-19.67-39.6l2.32-8.12-6-.44-.86.27a42.1,42.1,0,0,1-4.32,1.21,54.87,54.87,0,0,1-24.37,0,41.88,41.88,0,0,1-7.17-2.3l-1.59-.66-1.75.69a56.42,56.42,0,0,1-12,3.25,50.36,50.36,0,0,1-7.86.6c-1.59,0-3.26-.07-5-.21a43.62,43.62,0,0,1-15.65-4.39,40.73,40.73,0,0,1-13.95-11.55A42.23,42.23,0,0,1,319.74,473c-1.46-9.29-.26-17.57,3.6-24.59a30.56,30.56,0,0,1,16-13.93l3.59-.75,2.64-2.94c.35-1.63-2.82-2.57-2.28-4.07A29.38,29.38,0,0,1,353,413.48a32.76,32.76,0,0,1,15.3-6.34,34.26,34.26,0,0,1,5.47-.44,30.68,30.68,0,0,1,8.56,1.2c.72.2,1.43.44,2.12.69l1,.37,1.06-.15a35.39,35.39,0,0,1,5-.35,35,35,0,0,1,11.93,2l1.45.53,1.44-.53a34.13,34.13,0,0,1,10.15-1.95l.71,0,.66-.26a32,32,0,0,1,3.22-1.08,30.93,30.93,0,0,1,8.43-1.13,37.27,37.27,0,0,1,4.62.3,34.07,34.07,0,0,1,13.81,4.93l1.81,1.15,2-.64a33.24,33.24,0,0,1,10-1.51,34.08,34.08,0,0,1,4.29.27l.91.12.88-.27a45.85,45.85,0,0,1,6.1-1.43,79.92,79.92,0,0,1,12.83-.92,65.21,65.21,0,0,1,15.52,1.68l.64.16.67,0c.87-.07,1.75-.11,2.63-.11a32.05,32.05,0,0,1,9.3,1.37l1.75.53,1.59-.92a31.4,31.4,0,0,1,12.37-3.92,34,34,0,0,1,3.93-.22,30.23,30.23,0,0,1,18.14,5.73,33.6,33.6,0,0,1,3.53,3l2.53,2.51,2.89-2.09c7.13-5.16,16.41-7.66,28.36-7.66h1.23l4,.06,1-18.69,18.9-.95c1.62-.1,3.34-.14,5.42-.14,4.13,0,8.07.2,11.88.41h.34c2.83.15,5.58.28,8.23.34l22.37.44-1.43,17.59,4.24.3a31.66,31.66,0,0,1,7.84,1.6l1.12.38,1.14-.26a53.11,53.11,0,0,1,11.33-1.1,68.56,68.56,0,0,1,18.53,2.39c1.45.41,2.9.89,4.3,1.42l1.47.55,1.48-.54a80.16,80.16,0,0,1,8.48-2.58,68.15,68.15,0,0,1,16.84-2.41,38.62,38.62,0,0,1,9.18,1c11.11,2.69,19.35,10.64,22,21.28a30.81,30.81,0,0,1,.81,12.26,27.71,27.71,0,0,1-.81,3.85l-.32,1.15.32,1.15c.11.34.2.69.28,1s.19.72.26,1.08l.27,1.16.83.85a30.34,30.34,0,0,1,2.55,3,31.19,31.19,0,0,1,5.15,11.2C782.66,476.49,779.2,487.42,770.7,495.11Z"/><path class="cls-6" d="M572,562.12a41.91,41.91,0,0,1-5.08-.3,30.84,30.84,0,0,1-6-1.33,29.68,29.68,0,0,1-6.9.8,30.18,30.18,0,0,1-5.83-.56,29.84,29.84,0,0,1-5.79.56A30.22,30.22,0,0,1,528.53,558a29,29,0,0,1-29.32-1.42,22.71,22.71,0,0,1-6.82,2.77c-1.81.42-3.85.8-6.05,1.12-1.63.24-3.44.44-5.39.6-.59.05-1.21.08-1.81.08a22.8,22.8,0,0,1-19.73-11.37l-1.13-.32c-4.17-1.2-8-2.41-11.25-3.61l-.43-.15a30.17,30.17,0,0,1-18.23-36.58l2.12-7.4c.46-1.61.93-3.21,1.39-4.82a28.31,28.31,0,0,1-6,.62,34.31,34.31,0,0,1-4-.24,40.68,40.68,0,0,1-5.39,1.61,52.19,52.19,0,0,1-23.24,0,41,41,0,0,1-9.3-3.33c-.88.42-1.79.81-2.71,1.17a53.28,53.28,0,0,1-11.42,3.1,46.61,46.61,0,0,1-7.47.57c-1.52,0-3.12-.07-4.75-.2a40.82,40.82,0,0,1-14.73-4.13,38.08,38.08,0,0,1-13.09-10.84,39.72,39.72,0,0,1-7.56-18.49c-1.38-8.72-.26-16.46,3.32-23a28.39,28.39,0,0,1,18.32-13.93,32.06,32.06,0,0,1,1.82-8.1,26.93,26.93,0,0,1,8.88-12.13,30.26,30.26,0,0,1,14.14-5.85,34.26,34.26,0,0,1,5.08-.4,28,28,0,0,1,7.86,1.1,27.49,27.49,0,0,1,3.53,1.27,32.75,32.75,0,0,1,6.33-.61,31,31,0,0,1,13.38,2.81,30.65,30.65,0,0,1,12.86-2.8,27.52,27.52,0,0,1,4-1.43,28.69,28.69,0,0,1,7.76-1,36.2,36.2,0,0,1,4.31.28,31.43,31.43,0,0,1,12.78,4.57c.95.6,1.87,1.24,2.75,1.92,1-.43,2.09-.81,3.16-1.14a30.8,30.8,0,0,1,9.23-1.4,31.87,31.87,0,0,1,4.26.29c.39.05.79.11,1.17.18a41.52,41.52,0,0,1,7.17-1.81,77,77,0,0,1,12.41-.89,61.66,61.66,0,0,1,16,1.87h.16a32,32,0,0,1,3.32-.18,29,29,0,0,1,11.41,2.29,27.91,27.91,0,0,1,13.88-5.25,33.77,33.77,0,0,1,3.65-.2,27.73,27.73,0,0,1,16.65,5.25A28.83,28.83,0,0,1,559,416a33.06,33.06,0,0,1,3.35-3.11c6.85-5.55,16.09-8.24,28.26-8.24a73.27,73.27,0,0,1,7.62.37c0-.81.11-1.65.16-2.5l.92-16.61,16.64-.84c1.57-.09,3.26-.13,5.29-.13,4.06,0,8,.2,11.75.4l.34,0c2.84.15,5.62.28,8.3.34l19.69.39-1.48,18.2a31.62,31.62,0,0,1,4.6-.34,29.13,29.13,0,0,1,11.23,2.21c.49-.14,1-.27,1.51-.39a49.45,49.45,0,0,1,11.12-1.12,66.37,66.37,0,0,1,17.85,2.29,48.26,48.26,0,0,1,6.41,2.31,75.37,75.37,0,0,1,10.62-3.44,66,66,0,0,1,16.22-2.33,35.58,35.58,0,0,1,8.57,1c10.18,2.46,17.75,9.73,20.21,19.44a28.72,28.72,0,0,1,.76,11.28,25.52,25.52,0,0,1-1.33,5.33c.32.91.6,1.85.85,2.84a28.91,28.91,0,0,1,.62,2.93,27.1,27.1,0,0,1,3.72,4,28.8,28.8,0,0,1,4.72,10.3c2.47,9.69-.71,19.69-8.5,26.74-5.1,4.6-12.42,8.07-22.4,10.62a72.29,72.29,0,0,1-13.22,2.24c-.86.06-1.78.09-2.82.09A34.92,34.92,0,0,1,719,498.41a30.14,30.14,0,0,1-6.57-3.22,48.37,48.37,0,0,1-6.23,2.23,66.49,66.49,0,0,1-17.86,2.3,49.6,49.6,0,0,1-11.06-1.11,34.88,34.88,0,0,1-3.55-1,29.14,29.14,0,0,1-9.25,1.46,29.51,29.51,0,0,1-9.9-1.7,28.88,28.88,0,0,1-.48,7.16,33.27,33.27,0,0,1-6.44,14.59,30.3,30.3,0,0,1,.78,15.32,35.66,35.66,0,0,1-5.17,13,30.25,30.25,0,0,1-11.82,10.45A36.83,36.83,0,0,1,617,561.53c-.91.05-1.84.09-2.74.09a63.35,63.35,0,0,1-11.78-1.23,73.41,73.41,0,0,1-8.51-2.14A68,68,0,0,1,578,561.79,59.14,59.14,0,0,1,572,562.12Z"/><path d="M432.9,410.44a24.78,24.78,0,0,1,4.81,1.13,19.94,19.94,0,0,0-3.78,2.83l-.5-.61a15.9,15.9,0,0,0-4.13-3.57h.22A26.72,26.72,0,0,1,432.9,410.44Z"/><path d="M641.46,393.27l11.64.22-.52,6.4-1.05-1.68-.43,6.9a308.48,308.48,0,0,1-41.44,6.35l.49-18.52,6.18-.31c1.52-.09,3.12-.12,4.9-.12,3.92,0,7.78.2,11.52.39h.16C636,393.07,638.73,393.21,641.46,393.27Z"/><path d="M736.11,411.18l-.12,2.87a12.75,12.75,0,0,1-10.12,12,70.23,70.23,0,0,1-14.26,1.47,64.12,64.12,0,0,1-16.87-2.21,12.86,12.86,0,0,1-9.37-12.11l0-2.51a17.85,17.85,0,0,0-10.44-3.14,18.62,18.62,0,0,0-7.32,1.42h0a16.91,16.91,0,0,0-5.42,3.66,12.86,12.86,0,0,0-.94,1l-3.78-6a6,6,0,0,1,1-.08,55.8,55.8,0,0,0,7.54-1.16c.14,0,.26-.05.4-.06a47.1,47.1,0,0,1,4.79-.68h.07c5.34-.69,12.81-1.45,16.26-1.32a5.68,5.68,0,0,1,1.58.21c-.28,0-.8.14-1.29.25l.27.43a21.47,21.47,0,0,0,2.38-.22c1.16-.26.25,1.05-.88,2.62l2.24,3.58a13.69,13.69,0,0,0-1.37,1l-.09.09a56.67,56.67,0,0,1,13.78,2,38.87,38.87,0,0,1,8.34,3.39l1.21-.59A64.42,64.42,0,0,1,725,413.14,66.13,66.13,0,0,1,736.11,411.18Z"/><path d="M375.83,411.31a4.88,4.88,0,0,1-2.34,1.22,61.85,61.85,0,0,1-11.58,1.29,24.7,24.7,0,0,1,8-2.59,14.48,14.48,0,0,1,2.13-.07l.73,0C373.89,411.21,375.06,411.28,375.83,411.31Z"/><path d="M377.56,402.91l-.2,5c0,.13,0,.26,0,.38C377.32,406.49,377.15,404.25,377.56,402.91Z"/><path d="M636.06,485.39a57.83,57.83,0,0,1-10.74-.84c-10.4-1.94-15.89-9.38-16.31-22.12-.49-15.09.73-30,2.72-47.64.39-3.52.7-7.27.94-11.47l.21-3.78,3.78-.19c1.45-.07,3-.11,4.57-.11,3.79,0,7.62.2,11.32.4,2.89.15,5.87.31,8.77.36l4.49.09-.37,4.47c-1.17,14.24-2.8,32.64-5.26,51.73.94-.3,2-.59,3-.87a19.4,19.4,0,0,1,4.65-.53c4.08,0,7.32,1.24,9.65,3.69s3.42,5.72,3.42,9.87c0,7.64-3.82,11.51-7,13.41C649.88,484.24,644.05,485.39,636.06,485.39Z"/><path class="cls-6" d="M543.56,222.07l3-1.17c1-.39,9.81-4.79,15.16-7.46l2.23-1.12,3.56,5.13-20.35,11.48Z"/><path class="cls-6" d="M543.57,222.07l3-1.17c.08,0,.71-.3,4.28-2.06l4.08-2,.06,4.54c0,.36,0,.72.07,1.12l.19,1.87-8.08,4.56Z"/><path class="cls-6" d="M506.3,211.79l4.67-4.24,1.9,1.43c4.9,3.69,13,9.75,13.91,10.31l2.81,1.78-2.15,2.54L524.55,227Z"/><path class="cls-6" d="M516.51,220.28l1.77-2.2a8.22,8.22,0,0,0,.49-.72l1.62-2.75,2.56,1.9c3.11,2.3,3.72,2.71,3.83,2.78l2.81,1.78-2.15,2.54L524.55,227Z"/><path class="cls-6" d="M538.46,246.16l8.32-3.14,1.28,1.8c2.11,3,6.78,8.18,10.2,12,1.78,2,3.32,3.72,4.25,4.83l1.78,2.14-4.61,4.09Z"/><path class="cls-6" d="M538.46,246.16l8.32-3.14,1.28,1.8c1.69,2.36,5,6.2,7.41,8.87l1,1.19-.45,1.53c-.12.41-.22.79-.3,1.15l-1.2,5.1Z"/><path class="cls-6" d="M512.33,265.09l1.94-2.79c2-2.86,10.71-15.22,13.94-19l1.33-1.53,7.15,2.8-18.82,23.09Z"/><path class="cls-6" d="M520,258.65a6.61,6.61,0,0,0-.36-.62l-1.15-1.67,1.18-1.64c2.85-4,6.65-9.15,8.57-11.37l1.33-1.53,7.15,2.8-14.77,18.12Z"/><path class="cls-6" d="M537.87,231.56l13.89,6.88.23,1.47a6.31,6.31,0,0,1-1.49,4.91c-2,2.67-6,5.08-7.94,5.29l-2.91.32Z"/><polygon class="cls-6" points="531.67 228.19 533.23 215.29 541.49 217.34 542.68 229.54 531.67 228.19"/><polygon class="cls-6" points="522.67 245.72 544.59 230.24 548.31 246.06 522.67 245.72"/><polygon class="cls-6" points="529.12 245.24 530.5 238.37 546.38 238.67 549.34 245.47 529.12 245.24"/><path class="cls-6" d="M533.51,257.86a11.88,11.88,0,0,0-7.71-2.67,18.74,18.74,0,0,0-2.6.2l-.5.06-7.35,4.95,13.32-21.17,17.53.2.8.74a43.75,43.75,0,0,0,8.35,5.43l5.92,15.83-8-9c-2.12.76-4,3-5.82,5.46l-1.93,2.58-2.35-2.21c-1.6-1.51-3.37-3-4.62-4a16.32,16.32,0,0,0-.46,1.83l-.87,4.72Z"/><path class="cls-6" d="M526.21,276.64c-.94-.55-5.85-13.56-6.88-14l-.87-5.12,2.61-3.2c5.64-6.94,8.92-7.89,11.62-7.89a5.82,5.82,0,0,1,.59,0c1.52.1,3.83.27,17,8.26l3.77,2.29L551,259.81c-.72.65-1.15,1.07-1.18,1.1l-3.31,3.25-4-2.79c-2.74-1.9-3.66,3.13-5.8,1.93-.31.72-2.74,2.93-2.93,3.68l-1.47-2.37Z"/><g class="cls-8"><path class="cls-6" d="M537.13,246.94a32.11,32.11,0,0,1-8.7-1.08l-2.59-.9.94-3.17,1.89-2.56,1.65,0,.18-.88,2.51,0,2.55-1.8,10-2.38,1.27,5.4.24.56,3.42,2.91-3.81,2a21,21,0,0,1-9.52,1.86Z"/></g><path class="cls-6" d="M528.48,247a23.75,23.75,0,0,1-3.37-.23c-2.17,3.15-4.3,6.33-6.52,9.44a29.3,29.3,0,0,1,1.81-6c.69-2,1.43-4.08,2.13-6.13a61.15,61.15,0,0,0,3.16-12.47c.1-.82,0-1.87-.75-2.13l-6-2a1.94,1.94,0,0,1-.87-.47c-.51-.59-.11-1.51.32-2.17q1.43-2.16,3-4.2a13.55,13.55,0,0,1,3-3c1-.66,2.38-1.05,3.31-.31a17.85,17.85,0,0,0,10.59,3.49A36.72,36.72,0,0,0,549.45,219a16.55,16.55,0,0,1,3.71,7.2c.31,1.38.37,3-.67,4-1.36,1.23-3.61.49-5.23,1.34a11,11,0,0,0,3.63,6.52l-2.42,5a13.85,13.85,0,0,0-6.59.84A38.65,38.65,0,0,1,528.48,247Z"/><path class="cls-6" d="M537.88,227.83a8.19,8.19,0,0,1-5.5-2.54l-6.66-6.87,9.34,2.06a20.82,20.82,0,0,0,3.53.28l1.77.07,5.46.26-3.3,4.35a5.76,5.76,0,0,1-4.64,2.39Z"/><path class="cls-6" d="M537.78,227.35a7.48,7.48,0,0,1-4.49-1.77l-4.35-3.75,5.61-1.24a10.67,10.67,0,0,1,2.38-.3,9.11,9.11,0,0,1,3.42.71l3.34,1.3-2,3a4.64,4.64,0,0,1-3.92,2.08Z"/><path class="cls-6" d="M565,221a4.13,4.13,0,0,1-2.89-1.38,2.94,2.94,0,0,1-2-4.75l.08-.13a12.11,12.11,0,0,1,1.89-2.27c.07-.07.16-.15.25-.25l.36-.36a4.68,4.68,0,0,1,3.09-1.4,3.31,3.31,0,0,1,1.22.23,3.14,3.14,0,0,1,2.56,1.41,3.84,3.84,0,0,1,.28.53,3.09,3.09,0,0,1,.59,3.65,3.19,3.19,0,0,1-2,1.54l-.24.09a3.8,3.8,0,0,1,0,.46,3.1,3.1,0,0,1-1.33,2.08A3.24,3.24,0,0,1,565,221Z"/><path class="cls-6" d="M509.46,216.93a3.26,3.26,0,0,1-1.5-.37,3,3,0,0,1-1.54-1.88,3.64,3.64,0,0,1-.1-.54l-.25-.06a3,3,0,0,1-2.7-3.55,3.08,3.08,0,0,1,.63-1.41,2.66,2.66,0,0,1,.2-.58,3.1,3.1,0,0,1,2.38-1.75,3.18,3.18,0,0,1,1.61-.43,4.8,4.8,0,0,1,2.87,1.09l.39.31.27.22a12.05,12.05,0,0,1,2.16,2.08.63.63,0,0,0,.1.12,3,3,0,0,1,.69,3,2.93,2.93,0,0,1-2.09,2,3.92,3.92,0,0,1-3.12,1.82Z"/><polygon class="cls-6" points="531 237.28 531.73 236.32 528.83 236 535.18 226.65 545.84 226 542.41 230.49 547.21 231.26 535.11 241.25 531 237.28"/><g class="cls-8"><path class="cls-6" d="M538.53,229.37c-.35,0-.71,0-1.06,0a14.74,14.74,0,0,1-10.87-6.25l-5.18-8.33,8.86,4.22a17.07,17.07,0,0,0,2.4.92l.55-4.6,8.26,2.05.32,3.31a31.9,31.9,0,0,0,3.62-.57l7-1.49-4,5.9a12,12,0,0,1-9.89,4.88Z"/></g><path class="cls-6" d="M527.45,220.39c-3.32-1.85-8.59-5.48-9.7-10.41a8.81,8.81,0,0,1-4.39-4,6,6,0,0,1-.54-3.2,6.79,6.79,0,0,1-2.14-5.43c.33-3.43,3.3-6.24,9.3-8.75a6.23,6.23,0,0,1,.17-1.57c.8-3.29,4.08-6.05,10-8.43a54.59,54.59,0,0,1,17.66-3.15c3.07,0,6.27.31,7.58,2.36a20,20,0,0,1,2.58-.18c5.68,0,7.34,3,7.82,4.85,1.1,4.13-1.84,7.39-3.79,9.56-.24.26-.53.59-.8.9a2.86,2.86,0,0,0,1,.36,3.27,3.27,0,0,1,2.87,2.63c.26,1.4-.42,2.41-1.54,4.08a20,20,0,0,0-2,3.33c.95,3.72-1.43,12.9-9.6,16.44l-.51.22-23.32.77Z"/><path class="cls-6" d="M527.45,220.39c-3.32-1.85-8.59-5.48-9.7-10.41a8.81,8.81,0,0,1-4.39-4,6,6,0,0,1-.54-3.21,7.1,7.1,0,0,1-2.16-4.45c-.1-1.62.41-4.06,3.47-6.47l3-2.35,1.44,3.52c2.51,6.12,9.51,11.21,18.27,13.31a35.81,35.81,0,0,0,8.31,1,29.09,29.09,0,0,0,12.28-2.55l5.3-2.49L561.45,208c-.44,2-2.43,8.74-9.48,11.79l-.51.22-23.32.77Z"/><path class="cls-6" d="M555.25,217A4.2,4.2,0,0,1,552,215.5c-1.92-2.32-.44-5.74.29-7.1l.63-1.18,1.3-.28a4.63,4.63,0,0,1,1-.12,5,5,0,0,1,4,2.09,5.14,5.14,0,0,1,.71,4.63A5.08,5.08,0,0,1,555.25,217Z"/><path class="cls-6" d="M555,216.41a3.91,3.91,0,0,1-3-1.4c-1.72-2.08-.47-5,.15-6.15l.62-1.18,1.31-.28a4.23,4.23,0,0,1,.94-.1,4.5,4.5,0,0,1,3.62,1.87,4.63,4.63,0,0,1,.62,4.14A4.55,4.55,0,0,1,555,216.41Z"/><path class="cls-6" d="M554.81,215.55a3.43,3.43,0,0,1-2.65-1.23c-1-1.21-1-3,0-4.75l.65-1.16,1.3-.26a3.61,3.61,0,0,1,.73-.07,3.74,3.74,0,0,1,0,7.47Z"/><path class="cls-6" d="M522.76,217.1a4.67,4.67,0,0,1-4.31-2.89,5.14,5.14,0,0,1,.53-4.82,5.22,5.22,0,0,1,4.3-2.38h1.41l.85,1c.66.82,2.7,3.68,1.43,6.39a4.65,4.65,0,0,1-4.21,2.64Z"/><path class="cls-6" d="M522.81,216.5a4.11,4.11,0,0,1-3.82-2.56,4.46,4.46,0,0,1,.45-4.19,4.52,4.52,0,0,1,3.74-2.06l1.4,0,.85,1c.54.67,2.22,3,1.12,5.39a4.14,4.14,0,0,1-3.74,2.35Z"/><path class="cls-6" d="M523.06,215.48a3.61,3.61,0,0,1-3.33-2.22,3.88,3.88,0,0,1,3.55-5.3l1.4,0,.84,1.05a4.29,4.29,0,0,1,.81,4.39,3.62,3.62,0,0,1-3.27,2.06Z"/><path class="cls-6" d="M540.08,224.32l-1,0c-12.53-.5-18.16-9.14-19.51-14.16-1.67-6.19.21-10.4,2.08-12.84,4-5.23,11.36-7.1,16.91-7.1a22.26,22.26,0,0,1,4.51.44c10,2.07,15.51,11.56,15.09,19.54-.44,8.19-8,14.14-18,14.14Z"/><g class="cls-9"><path class="cls-6" d="M540.08,224.32l-1,0c-12.53-.5-18.16-9.14-19.51-14.16-1.67-6.19.21-10.4,2.08-12.84,4-5.23,11.36-7.1,16.91-7.1a22.26,22.26,0,0,1,4.51.44c10,2.07,15.51,11.56,15.09,19.54-.44,8.19-8,14.14-18,14.14Z"/></g><path class="cls-6" d="M539.05,215.65a4.58,4.58,0,0,1-.64,0,4.52,4.52,0,0,1-3-1.65,3.49,3.49,0,0,1-.73-2.61,3.9,3.9,0,0,1,4.08-3.22c.21,0,.42,0,.63,0a4.6,4.6,0,0,1,3.06,1.65,3.49,3.49,0,0,1,.73,2.61,3.9,3.9,0,0,1-4.08,3.22Z"/><path class="cls-6" d="M539,215.24a4,4,0,0,1-.6,0,4.3,4.3,0,0,1-2.89-1.57,3.42,3.42,0,0,1-.72-2.54A3.76,3.76,0,0,1,538.7,208l.59,0a4.33,4.33,0,0,1,2.9,1.58,3.44,3.44,0,0,1,.71,2.54,3.76,3.76,0,0,1-3.91,3.12Z"/><path class="cls-6" d="M538.35,220.52c-3.79,0-5.19-4.59-5.65-6.1l-1.23-4,14.35,1.13-1.53,3.67C543.77,216.43,541.79,220.52,538.35,220.52Z"/><polygon class="cls-6" points="534.69 218.18 531.12 210.62 545.96 211.84 541.69 219.08 534.69 218.18"/><path class="cls-6" d="M535.93,199.52a9.28,9.28,0,0,1-5.43-1.65c-.59-.38-.68-.41-.83-.41h-.22L528,191.93l7.48-2.78,2.16,4.49a1.11,1.11,0,0,0-.27-.66,5.21,5.21,0,0,0,1.44.73l-.37,5.58A15.75,15.75,0,0,1,535.93,199.52Z"/><path class="cls-10" d="M547.59,223.57c1.29-.5,15.4-7.56,15.4-7.56l.34.49-15,8.46Z"/><path class="cls-11" d="M552.09,221.42c-2.25,1.11-4.07,2-4.5,2.15l.73,1.39,3.85-2.17A12.16,12.16,0,0,1,552.09,221.42Z"/><path class="cls-10" d="M525.26,221.73c-1.21-.75-14.12-10.45-14.12-10.45l-.46.41L524.21,223Z"/><path class="cls-11" d="M521.24,218.82a8.59,8.59,0,0,1-.72,1.06l3.69,3.07,1-1.22C524.87,221.49,523.25,220.31,521.24,218.82Z"/><polygon class="cls-12" points="528.45 245.19 525.48 243.88 528.75 242.69 528.45 245.19"/><path class="cls-13" d="M522.55,252.64c3.08,5.38,12.75,3,12.75,3L530.74,247Z"/><path class="cls-13" d="M545.21,256.1c5.87.19,8.85-8,8.85-8l-8.85,0Z"/><path class="cls-10" d="M560.3,263.5c-2.71-3.25-11.3-12.42-14.58-17l-2.13.81,16.23,16.62Z"/><path class="cls-11" d="M553.31,255.6c-2.92-3.3-5.93-6.79-7.59-9.11l-2.13.81,9.38,9.6C553.07,256.46,553.19,256,553.31,255.6Z"/><path class="cls-10" d="M516.63,263.94c2.45-3.53,10.74-15.22,13.76-18.7l1.58.62-14.9,18.29Z"/><path class="cls-11" d="M522.56,257.41,532,245.86l-1.58-.62c-1.76,2-5.28,6.81-8.42,11.16A7.64,7.64,0,0,1,522.56,257.41Z"/><path class="cls-12" d="M542.24,247.25c1.34-.15,7.41-3.8,6.91-6.89l-7.93-3.93Z"/><polygon class="cls-10" points="538.82 219.64 535.7 218.86 534.87 225.69 539.47 226.25 538.82 219.64"/><polygon class="cls-11" points="542.77 235.05 544.67 243.14 531.56 242.97 542.77 235.05"/><polygon class="cls-14" points="544.48 241.51 532.85 241.29 532.62 242.4 544.93 242.55 544.48 241.51"/><path class="cls-15" d="M522.38,252.59c1.86-.2,7.51-1.31,12.92,3,0,0,1-5.17,2.53-5s7.36,5.6,7.36,5.6,4.95-6.65,8.85-8a45,45,0,0,1-9-5.86l-15-.18Z"/><path class="cls-13" d="M537.56,249.32c-1.27-.12-3.52,3.43-4.39,4.86a15.66,15.66,0,0,1,2.13,1.44s1-5.17,2.53-5,7.36,5.6,7.36,5.6.28-.38.75-1C543.73,253.41,538.78,249.44,537.56,249.32Z"/><g class="cls-8"><path class="cls-16" d="M545.33,242.52l-.26-.22h-.25l-.34-.78h-.2l-.89-3.8-6.63,1.58-2.86,2-1.06,0-.17.86-2.56,0-.72,1v0C531.27,243.8,540.32,245.11,545.33,242.52Z"/></g><path class="cls-17" d="M521.56,225.29c1.36-2,3.57-5.1,4.74-5.4,0,0,7.38,6.51,22,2.44,0,0,2.17,2.93,2.19,5.78,0,0-6.24.31-6.27,2.54,0,1.15.94,6.69,4.92,9.71-6.86-1.72-12.82,4.9-23.67,3.51,2.94-6.64,3.51-14.56,2.74-15.62C527.25,226.91,521.56,225.29,521.56,225.29Z"/><path class="cls-12" d="M534.44,223.29c1.14,1.17,3.92,2.86,5.79.41A39.36,39.36,0,0,1,534.44,223.29Z"/><path class="cls-18" d="M550.5,228.11a7,7,0,0,0-.24-1.7c-1.93.59-6.63,1.47-6.94,3.67-.45,3.11,3.06,8,5.83,10.28a15.42,15.42,0,0,1-4.92-9.71C544.26,228.42,550.5,228.11,550.5,228.11Z"/><path class="cls-18" d="M529.38,227.5c-.55-1-5.27-3-7-3.46-.31.44-.6.86-.86,1.25,0,0,5.69,1.62,6.66,3,.77,1.06.2,9-2.74,15.62C525.69,243.9,531.53,231.48,529.38,227.5Z"/><path class="cls-15" d="M513.4,260.8a12,12,0,0,0,3.57,3.81l.34-.72A7.55,7.55,0,0,0,513.4,260.8Z"/><path class="cls-15" d="M564.11,261.82a10.17,10.17,0,0,1-4.28,2v-.8A6.12,6.12,0,0,1,564.11,261.82Z"/><path class="cls-10" d="M535.17,223.4c.82.71,3.07,1.87,4.14.28A6,6,0,0,0,535.17,223.4Z"/><path class="cls-10" d="M562.35,216.57a10.71,10.71,0,0,1,1.64-2l.67-.67c.45-.44,1.11-.72,1.26-.51s-.36.37-.69.68-.39.36-.32.43a3.86,3.86,0,0,0,1-.53c.62-.37,1.1-.53,1.24-.31s-.33.35-.87.75-.68.46-.54.68.39-.1,1-.29,1.14-.23,1.2,0-.3.2-1,.55c-.94.46-1.88.78-2.15,1.34s.88,1.11.46,1.39-.78-.12-1.64-1.13C563.31,216.65,562.1,216.88,562.35,216.57Z"/><path class="cls-10" d="M511.9,212.17a11.23,11.23,0,0,0-1.89-1.88c-.19-.14-.46-.37-.74-.59-.5-.4-1.19-.6-1.31-.36s.4.32.76.6.43.32.38.4a4.1,4.1,0,0,1-1-.42c-.67-.3-1.16-.4-1.28-.16s.38.32,1,.66.73.38.63.62-.4,0-1-.17-1.16-.09-1.2.13.32.16,1.08.43c1,.35,2,.55,2.3,1.09s-.73,1.26-.28,1.49.76-.23,1.48-1.37C511,212.38,512.18,212.46,511.9,212.17Z"/><polygon class="cls-19" points="536.77 229.43 533.89 233.67 537.11 234.03 533.28 239.03 540.48 233.09 537.22 232.56 539.74 229.25 536.77 229.43"/><g class="cls-8"><path class="cls-20" d="M537.7,226.47a9.28,9.28,0,0,0,8.33-3.58,32.56,32.56,0,0,1-6.69.77h-.08l0,0-.39-4-3.12-.78-.55,4.52a21.48,21.48,0,0,1-6.11-1.82A12,12,0,0,0,537.7,226.47Z"/></g><path class="cls-21" d="M528.84,217.87c-4.65-2.58-8.55-6.21-8.42-10,0,0-6.42-1.72-4.34-6.18,0,0-9.22-5.45,7.37-11.39,0,0-3.82-4.42,7.78-9.07,9.08-3.64,27.81-4.34,20,.4,0,0,10.44-3.46,11.77,1.55s-7.51,8.93-4.72,11.19,3.81,1.4,3.94,2.07-4.24,5.54-3.5,7.43S558,214,550.82,217.14Z"/><path class="cls-22" d="M536.16,209.13c-10.1-2.42-17.51-8.31-20.26-15-5.44,4.29.18,7.62.18,7.62-2.08,4.46,4.34,6.18,4.34,6.18-.13,3.75,3.77,7.38,8.42,10l22-.73a13.8,13.8,0,0,0,7.82-9.77C552.54,210.24,544.45,211.11,536.16,209.13Z"/><path class="cls-10" d="M554.81,209.75a2.18,2.18,0,0,1,2.44,2.88c-.48,1.44-2.28,2-3,1C553.3,212.58,554.81,209.75,554.81,209.75Z"/><path class="cls-11" d="M554.64,210.21a1.66,1.66,0,0,1,1.86,2.18c-.37,1.09-1.74,1.5-2.32.79S554.64,210.21,554.64,210.21Z"/><path class="cls-10" d="M554.64,211a.85.85,0,0,1,1,1.13.77.77,0,0,1-1.22.39C554,212.06,554.64,211,554.64,211Z"/><path class="cls-10" d="M523.3,209.88a2.44,2.44,0,0,0-2.19,3.23,1.79,1.79,0,0,0,3.26.13C525,212,523.3,209.88,523.3,209.88Z"/><path class="cls-11" d="M523.19,210.56a1.72,1.72,0,0,0-1.54,2.28,1.26,1.26,0,0,0,2.29.09C524.37,212,523.19,210.56,523.19,210.56Z"/><path class="cls-10" d="M523.29,210.83a1,1,0,0,0-.9,1.32.73.73,0,0,0,1.33,0C524,211.68,523.29,210.83,523.29,210.83Z"/><path class="cls-10" d="M522.31,209.39c1,3.55,5.52,11.58,16.85,12,9.1.37,15.74-4.7,16.1-11.39s-4.39-14.83-12.81-16.58S518.67,195.88,522.31,209.39Z"/><g class="cls-23"><g class="cls-9"><g class="cls-24"><polygon class="cls-25" points="555.61 211.84 518.67 214.4 518.67 191.7 555.61 191.7 555.61 211.84"/><polygon class="cls-25" points="555.61 212.32 518.67 214.88 518.67 214.4 555.61 211.84 555.61 212.32"/><polygon class="cls-26" points="555.61 212.8 518.67 215.36 518.67 214.88 555.61 212.32 555.61 212.8"/><polygon class="cls-27" points="555.61 213.28 518.67 215.84 518.67 215.36 555.61 212.8 555.61 213.28"/><polygon class="cls-28" points="555.61 213.77 518.67 216.32 518.67 215.84 555.61 213.28 555.61 213.77"/><polygon class="cls-29" points="555.61 214.25 518.67 216.81 518.67 216.32 555.61 213.77 555.61 214.25"/><polygon class="cls-30" points="555.61 214.73 518.67 217.29 518.67 216.81 555.61 214.25 555.61 214.73"/><polygon class="cls-31" points="555.61 215.21 518.67 217.77 518.67 217.29 555.61 214.73 555.61 215.21"/><polygon class="cls-32" points="555.61 215.69 518.67 218.25 518.67 217.77 555.61 215.21 555.61 215.69"/><polygon class="cls-33" points="555.61 216.17 518.67 218.73 518.67 218.25 555.61 215.69 555.61 216.17"/><polygon class="cls-34" points="555.61 216.66 518.67 219.21 518.67 218.73 555.61 216.17 555.61 216.66"/><polygon class="cls-35" points="555.61 217.14 518.67 219.69 518.67 219.21 555.61 216.66 555.61 217.14"/><polygon class="cls-36" points="555.61 217.62 518.67 220.18 518.67 219.69 555.61 217.14 555.61 217.62"/><polygon class="cls-37" points="555.61 218.1 518.7 220.66 518.67 220.28 518.67 220.18 555.61 217.62 555.61 218.1"/><polygon class="cls-38" points="555.61 218.58 518.73 221.13 518.7 220.66 555.61 218.1 555.61 218.58"/><polygon class="cls-39" points="555.61 219.06 518.77 221.62 518.73 221.13 555.61 218.58 555.61 219.06"/><polygon class="cls-40" points="555.61 219.55 523.22 221.79 518.78 221.79 518.77 221.62 555.61 219.06 555.61 219.55"/><polygon class="cls-41" points="555.61 220.03 530.18 221.79 523.22 221.79 555.61 219.55 555.61 220.03"/><polygon class="cls-42" points="555.61 220.51 537.13 221.79 530.18 221.79 555.61 220.03 555.61 220.51"/><polygon class="cls-43" points="555.61 220.99 544.09 221.79 537.13 221.79 555.61 220.51 555.61 220.99"/><polygon class="cls-44" points="555.61 221.47 551.05 221.79 544.09 221.79 555.61 220.99 555.61 221.47"/><polygon class="cls-45" points="551.05 221.79 555.61 221.47 555.61 221.79 551.05 221.79"/></g></g></g><path class="cls-46" d="M533.05,201c-3.12-.34-5.9,2.2-6.21,5.68s2,6.58,5.09,6.92,5.9-2.2,6.21-5.68S536.17,201.31,533.05,201ZM532,213.17c-2.87-.31-5-3.21-4.68-6.47s2.85-5.65,5.72-5.33,5,3.21,4.68,6.47S534.84,213.49,532,213.17Z"/><path class="cls-46" d="M545.67,201.54c-2.71-.28-5.14,2.31-5.43,5.79s1.69,6.53,4.41,6.81,5.14-2.3,5.43-5.79S548.39,201.82,545.67,201.54Zm-1,12.21c-2.5-.26-4.31-3.12-4-6.38s2.5-5.69,5-5.43,4.31,3.11,4,6.37S547.18,214,544.68,213.75Z"/><path class="cls-47" d="M533.69,208.3a1.09,1.09,0,0,0-.75-1.33,1.07,1.07,0,0,0-1.18.95,1,1,0,1,0,1.93.38Z"/><path class="cls-47" d="M546.42,209a1.1,1.1,0,0,0-.75-1.33,1.18,1.18,0,1,0,.75,1.33Z"/><polygon class="cls-46" points="538.11 207.87 538.11 207.3 540.43 207.37 540.42 207.94 538.11 207.87"/><polygon class="cls-46" points="549.7 208.02 549.63 207.44 555.58 209.23 555.64 209.82 549.7 208.02"/><polygon class="cls-46" points="522.09 209.92 522.03 209.34 527.24 207.84 527.3 208.43 522.09 209.92"/><path class="cls-48" d="M540.28,212.06c.06-.47-.52-.94-1.29-1s-1.45.22-1.51.7.51.94,1.29,1S540.22,212.54,540.28,212.06Z"/><path class="cls-10" d="M540.05,211.75c.05-.41-.45-.81-1.11-.89s-1.25.18-1.3.59.44.82,1.11.9S540,212.16,540.05,211.75Z"/><path class="cls-49" d="M535.45,213.58l6.19.49S538.14,222.44,535.45,213.58Z"/><polygon class="cls-50" points="536.62 215.53 535.84 213.89 541.15 214.33 540.17 215.99 536.62 215.53"/><path class="cls-21" d="M529,194.63c3.31-.49,3,2.82,9,1.82,0,0-6-1.86-1.48-4.6Z"/><path class="cls-51" d="M524.42,249.83l-2,2.76c1.86-.2,7.51-1.31,12.92,3a20.55,20.55,0,0,1,.6-2.35A21,21,0,0,0,524.42,249.83Z"/><path class="cls-51" d="M544.16,255.25c.62.56,1,.95,1,.95s4.95-6.65,8.85-8c-.77-.4-1.5-.79-2.18-1.18A24.08,24.08,0,0,0,544.16,255.25Z"/><path d="M763.92,481.71c-4.15,3.75-10.43,6.66-19.18,8.89a64.9,64.9,0,0,1-11.86,2c-.68.05-1.45.07-2.31.07a27.36,27.36,0,0,1-9.1-1.44,21.93,21.93,0,0,1-8.19-5,38.65,38.65,0,0,1-9.19,3.88,58.59,58.59,0,0,1-15.8,2,42.11,42.11,0,0,1-9.36-.92,23.79,23.79,0,0,1-5.21-1.85,21.74,21.74,0,0,1-19.17-.3,34.71,34.71,0,0,1-9,2.43,20.3,20.3,0,0,1,1.05,11.56,24.77,24.77,0,0,1-6.94,13.52c-.32.31-.65.6-1,.89A27.06,27.06,0,0,1,640,520.3,22.62,22.62,0,0,1,641,533a28.25,28.25,0,0,1-4.06,10.25,22.69,22.69,0,0,1-8.89,7.85A29.19,29.19,0,0,1,616.54,554c-.79,0-1.57.08-2.3.08A55.37,55.37,0,0,1,603.88,553a60.88,60.88,0,0,1-10.07-2.78l-1.06.43a58.66,58.66,0,0,1-15.51,3.65,51.68,51.68,0,0,1-5.24.29,34.5,34.5,0,0,1-4.16-.24,23.47,23.47,0,0,1-6.63-1.79,22.51,22.51,0,0,1-13.05.44,21.53,21.53,0,0,1-5.79.76A23.3,23.3,0,0,1,528.31,549a20.56,20.56,0,0,1-2.61,1.91,21,21,0,0,1-25.11-3c-.45-.46-.87-.92-1.27-1.41a15.11,15.11,0,0,1-8.6,5.48c-1.73.39-3.58.73-5.5,1-1.51.22-3.16.39-4.89.54-.4,0-.79,0-1.19,0a15.22,15.22,0,0,1-14.39-10.27c-1.47-.33-2.93-.71-4.36-1.12-3.95-1.13-7.57-2.29-10.77-3.45l-.29-.1a22.6,22.6,0,0,1-13.66-27.42l2.11-7.4q1.89-6.57,3.82-13.12l.13-.45c.2-.7.43-1.38.66-2a16.79,16.79,0,0,1-1.95-2.5,17.28,17.28,0,0,1-.93-1.69,13.88,13.88,0,0,1-1.24,1.3,17.37,17.37,0,0,1-12.37,4.61,27,27,0,0,1-3.41-.23c-.54-.07-1.05-.16-1.51-.24a33.23,33.23,0,0,1-6.14,2,44.67,44.67,0,0,1-19.88,0,33.07,33.07,0,0,1-10.22-4.19l-.67-.43a33.46,33.46,0,0,1-5.58,2.8,45.63,45.63,0,0,1-9.82,2.66,39.58,39.58,0,0,1-6.3.48c-1.32,0-2.7-.06-4.12-.17a33.26,33.26,0,0,1-12-3.37,30.38,30.38,0,0,1-10.48-8.71,32,32,0,0,1-6.05-15c-1.12-7,.35-12.85,2.46-18.16,1.4-3.49,1.9-8.81,8.23-13.29-6.18-7.3-5.79-25.07-5.77-25.77v0c0-.31-.05-.61-.06-.92L334,373.87A12.61,12.61,0,0,1,336.6,366c-5.15-3.71-7.85-10.21-8.21-16.4l0-.23v-.23a9.12,9.12,0,0,1,2-5.82l0,0,16.26-26.39a16,16,0,0,1,27.31,0l16.26,26.39,0,0a9.12,9.12,0,0,1,2,5.82v.23l0,.23c-.38,6.45-3.3,13.23-8.86,16.85a12.8,12.8,0,0,1,3.22,8.87l31-46.31h0l-1.2-26.85a12.76,12.76,0,0,1-3-7.69l-1.38-32c-3.95-3.81-6-9.45-6.37-14.85l0-.24v-.23a9.1,9.1,0,0,1,2-5.81l0,0,16.26-26.4a16,16,0,0,1,27.31,0l16.26,26.4,0,0a9.1,9.1,0,0,1,2,5.81v.23l0,.24a23.48,23.48,0,0,1-4.95,13.32v.24l-.09,6a18.51,18.51,0,0,1,10.09-3H596a18.5,18.5,0,0,1,14.06,6.52l.21-11.22a5.34,5.34,0,0,1,0-.81,22.91,22.91,0,0,1-6-14.52v-.46a9,9,0,0,1,2-5.76l16.31-26.48a16,16,0,0,1,27.31,0l16.25,26.4,0,0a9.09,9.09,0,0,1,2,5.81v.46a23,23,0,0,1-5.82,14.31,12.72,12.72,0,0,1,.44,4.46l-2.52,32.79a12.94,12.94,0,0,1-2.64,6.86l-2.25,35.68,29.57,47.17-.09-5.67a12.55,12.55,0,0,1,2.37-7.64c-5-3.73-7.64-10.15-8-16.26v-.47a9.1,9.1,0,0,1,2-5.83h0l16.27-26.39a16,16,0,0,1,27.3,0L741,349.46l0,0a9.09,9.09,0,0,1,2,5.81v.24l0,.23c-.37,6.36-3.2,13-8.62,16.69a12.81,12.81,0,0,1,3,8.73l-1.2,30a66.13,66.13,0,0,0-11.08,2A64.42,64.42,0,0,0,713.64,417l-1.21.59a38.87,38.87,0,0,0-8.34-3.39,56.67,56.67,0,0,0-13.78-2l.09-.09a13.69,13.69,0,0,1,1.37-1l-2.24-3.58c1.13-1.57,2-2.88.88-2.62a21.47,21.47,0,0,1-2.38.22l-.27-.43c.49-.11,1-.21,1.29-.25a5.68,5.68,0,0,0-1.58-.21c-3.45-.13-10.92.63-16.26,1.32h-.07a47.1,47.1,0,0,0-4.79.68c-.14,0-.26,0-.4.06a55.8,55.8,0,0,1-7.54,1.16,6,6,0,0,0-1,.08l-4.84-7.73.52-6.4-11.64-.22c-2.73-.06-5.48-.2-8.55-.36h-.16c-3.74-.19-7.6-.39-11.52-.39-1.78,0-3.38,0-4.9.12l-6.18.31,1.94-72.55-13.25-17.64a5.13,5.13,0,0,0-4.05-2H475.66a5.1,5.1,0,0,0-4.05,2l-11.25,15-1.8,84.93-.11,4.87a69.34,69.34,0,0,0-11.13.78,28.46,28.46,0,0,0-9.46,3.16l-.15.09a24.78,24.78,0,0,0-4.81-1.13,26.72,26.72,0,0,0-3.38-.22h-.22a19.07,19.07,0,0,0-8.23-2.58l-.17-3.95-.7-15.61h0l-17.44,26.13-.05,0-.55.54a1.52,1.52,0,0,0,.57.52,20.76,20.76,0,0,1,2.19,1.39,20.84,20.84,0,0,1,2.19-1.4,22.78,22.78,0,0,1,11.18-2.61l1.18,0a20.54,20.54,0,0,1,4.29-1.71,21.13,21.13,0,0,1,5.55-.77,15.9,15.9,0,0,1,4.13,3.57l.5.61a19.94,19.94,0,0,1,3.78-2.83,23.59,23.59,0,0,1,4.86,2.33,28.21,28.21,0,0,1,5.57,4.64,28.63,28.63,0,0,1,6.61-3,23.13,23.13,0,0,1,7-1.06,22.85,22.85,0,0,1,3.23.22,26.12,26.12,0,0,1,2.9.54,31.85,31.85,0,0,1,7.71-2.21,70.09,70.09,0,0,1,11.18-.78,52,52,0,0,1,15.42,2c.49-.09,1-.15,1.48-.21a25.1,25.1,0,0,1,2.55-.13,21.42,21.42,0,0,1,11,3c.54.32,1.08.67,1.61,1,2.3-2.91,6.41-6.24,13.49-7a26.22,26.22,0,0,1,2.82-.15,20.31,20.31,0,0,1,12.2,3.8,22.93,22.93,0,0,1,8.24,11.89,71.06,71.06,0,0,1,2.47,10,24.48,24.48,0,0,1,9.06-17.7c5.44-4.4,13.12-6.54,23.49-6.54A52.55,52.55,0,0,1,605,414c.38-3.34.67-6.94.91-11l.55-9.82,3.65-.18-.49,18.52a308.48,308.48,0,0,0,41.44-6.35l.43-6.9,1.05,1.68-.42,5.22c-.28,3.4-.59,7.1-.94,11,3.33-2.8,2.29-7.81,6.2-8.51l3.78,6a12.86,12.86,0,0,1,.94-1,16.91,16.91,0,0,1,5.42-3.66h0a18.62,18.62,0,0,1,7.32-1.42,17.85,17.85,0,0,1,10.44,3.14l0,2.51a12.86,12.86,0,0,0,9.37,12.11,64.12,64.12,0,0,0,16.87,2.21A70.23,70.23,0,0,0,725.87,426a12.75,12.75,0,0,0,10.12-12l.12-2.87c1.13-.09,2.23-.14,3.28-.14a28.69,28.69,0,0,1,6.75.75c7.53,1.82,12.89,6.9,14.68,13.95a21.23,21.23,0,0,1,.61,8.33,17.33,17.33,0,0,1-2.11,6.29,23.07,23.07,0,0,1,1.79,4.83,22.6,22.6,0,0,1,.74,5.1,17.88,17.88,0,0,1,4.86,4.54,21.07,21.07,0,0,1,3.44,7.62C772,469.48,769.67,476.51,763.92,481.71Z"/><path d="M432.9,410.44a24.78,24.78,0,0,1,4.81,1.13,19.94,19.94,0,0,0-3.78,2.83l-.5-.61a15.9,15.9,0,0,0-4.13-3.57h.22A26.72,26.72,0,0,1,432.9,410.44Z"/><path d="M641.46,393.27l11.64.22-.52,6.4-1.05-1.68-.43,6.9a308.48,308.48,0,0,1-41.44,6.35l.49-18.52,6.18-.31c1.52-.09,3.12-.12,4.9-.12,3.92,0,7.78.2,11.52.39h.16C636,393.07,638.73,393.21,641.46,393.27Z"/><path d="M736.11,411.18l-.12,2.87a12.75,12.75,0,0,1-10.12,12,70.23,70.23,0,0,1-14.26,1.47,64.12,64.12,0,0,1-16.87-2.21,12.86,12.86,0,0,1-9.37-12.11l0-2.51a17.85,17.85,0,0,0-10.44-3.14,18.62,18.62,0,0,0-7.32,1.42h0a16.91,16.91,0,0,0-5.42,3.66,12.86,12.86,0,0,0-.94,1l-3.78-6a6,6,0,0,1,1-.08,55.8,55.8,0,0,0,7.54-1.16c.14,0,.26-.05.4-.06a47.1,47.1,0,0,1,4.79-.68h.07c5.34-.69,12.81-1.45,16.26-1.32a5.68,5.68,0,0,1,1.58.21c-.28,0-.8.14-1.29.25l.27.43a21.47,21.47,0,0,0,2.38-.22c1.16-.26.25,1.05-.88,2.62l2.24,3.58a13.69,13.69,0,0,0-1.37,1l-.09.09a56.67,56.67,0,0,1,13.78,2,38.87,38.87,0,0,1,8.34,3.39l1.21-.59A64.42,64.42,0,0,1,725,413.14,66.13,66.13,0,0,1,736.11,411.18Z"/><path d="M461.82,248.3l-.32,15.4A16.59,16.59,0,0,1,451.23,267H423.76a16.81,16.81,0,0,1-9.09-2.51l-.73-16.38Z"/><path class="cls-6" d="M397.07,330.38c-.09-.08-9.55-8.16-12.2-10.24a1.24,1.24,0,0,0-.37-.19,4.23,4.23,0,0,0-.54.13l-.73.19a3.94,3.94,0,0,1-.9.1,2.46,2.46,0,0,1-2.66-2,2.32,2.32,0,0,1,.07-.82,3.28,3.28,0,0,1-1.77-1.73,2.07,2.07,0,0,1,.17-1.74,1.59,1.59,0,0,1,.36-.45,2.15,2.15,0,0,1-.14-.81,2,2,0,0,1,.65-1.5,2.09,2.09,0,0,1,1-.5,1.95,1.95,0,0,1,1.71-1,2.44,2.44,0,0,1,1.9.93l.11,0a2.08,2.08,0,0,1,.6-.09c1.49,0,2.06,1.35,2.66,2.77a10.42,10.42,0,0,0,1.09,2.14c.8.9,7.65,5.54,13.81,9.49l1.91,1.23-5.51,5.12Z"/><polygon class="cls-6" points="395.08 329.28 401.51 322.49 404.72 325.96 404.93 329.59 401.69 334.83 395.08 329.28"/><path class="cls-6" d="M405.69,346.4c-3.66,0-9.2-1.52-10-4.91l-.12-.48.16-.48a113.4,113.4,0,0,1,6-13.73l.17-.35.31-.24A6.35,6.35,0,0,1,406,324.6a3.83,3.83,0,0,1,2.91,1.33c2.75,3.05,2.53,11.56,1.85,18.17l-.08.85-.73.46a8.08,8.08,0,0,1-4.29,1Z"/><path class="cls-6" d="M403.05,330.65c-1.62,0-2.68-1.56-2.81-4.16l-.05-.92,5.68-4.35.22,3.27c.12,1.77,0,4.87-1.92,5.88a2.51,2.51,0,0,1-1.12.28Z"/><path class="cls-6" d="M386.74,359.23c-.81-1.14-1.84-.5-2.24-.78L383.11,356l1-1.43a59.89,59.89,0,0,1,8.62-9.23l1-.83,6.46,4-1.53,1.58c0,.06-5.29,5.46-9.23,9.4L388,360.93Z"/><path class="cls-52" d="M383.86,358.45c-1.54,3.24-1.11,4.74.07,3.86.33-.25,1.34-1.21,2.66-2.52C384.49,360.15,383.94,359.27,383.86,358.45Z"/><path class="cls-53" d="M388.18,358.21c4-4,9.21-9.39,9.21-9.39l-3.5-2.14a58.81,58.81,0,0,0-8.33,8.91A11.67,11.67,0,0,1,388.18,358.21Z"/><path class="cls-54" d="M385.56,355.59c-.33.46-.64.91-.92,1.37s-.56,1-.78,1.49c.08.82.63,1.7,2.73,1.34l1.59-1.58A11.67,11.67,0,0,0,385.56,355.59Z"/><path class="cls-6" d="M384.22,365a2.24,2.24,0,0,1-2-1.1l-.05-.09,0-.09c-1-2.15.87-4.63,1.48-5.44l3.72-3.5-.56,4.76s0,.06,0,.09a2.94,2.94,0,0,0,.39,0h.21l6.21-.83-5.09,4C386.42,364.34,385.3,365,384.22,365Z"/><path class="cls-6" d="M387.19,363.19a3.92,3.92,0,0,1-3.08-1.19,3.51,3.51,0,0,1-.8-2.87l.06-.47.28-.37a27,27,0,0,1,2.09-2.42l1.1-1.16,1.25,1a11.12,11.12,0,0,1,2.88,3.47l.75,1.36-1.25.92-2,1.4-.41.3-.51,0Z"/><path class="cls-6" d="M387.89,360.88a7.74,7.74,0,0,0-2-2.41l-1.53-1.2,1.35-1.4a89.66,89.66,0,0,1,9.61-8.31l.83-.61,8.41,3.76-2.27,1.81s-4.56,3.62-9.84,7.46l-3.62,2.64Z"/><path class="cls-55" d="M385.06,359.34c-1.1,1.48-1.69,2.79-1.29,3.66.37.62,1.37.09,3.73-1.58C385.23,361.55,385,360.3,385.06,359.34Z"/><path class="cls-56" d="M385.06,359.34c-.11,1,.17,2.21,2.44,2.08l1.93-1.4a9.79,9.79,0,0,0-2.42-2.94A25,25,0,0,0,385.06,359.34Z"/><path class="cls-57" d="M401.23,351.14,396.4,349a87.69,87.69,0,0,0-9.39,8.1,9.79,9.79,0,0,1,2.42,2.94l2-1.47C396.75,354.69,401.23,351.14,401.23,351.14Z"/><polygon class="cls-6" points="388.99 343.67 397.07 340.46 396.23 345.24 391.99 347.51 388.99 343.67"/><path class="cls-6" d="M401.26,348.15a2.16,2.16,0,0,1,.63-.46l.34-.15h1.61l.42,1.14a1.77,1.77,0,0,1-.57,2Z"/><path class="cls-58" d="M397.07,350.13a4,4,0,0,0,.59.08l2.28-2.35Z"/><path class="cls-58" d="M394,347.52l.35.26,2.81-2.2S394.91,347,394,347.52Z"/><path class="cls-55" d="M398.3,341.94l-6.89,2,.58.75,3.41-1-2.93,1.57-.81.53,2.32,1.74c.93-.56,3.16-1.94,3.16-1.94l-2.81,2.2.05,0-.71.6a10.25,10.25,0,0,0,3.4,1.71l2.87-2.27-2.28,2.35c-.32.59-.44.65-.44.65l2.4,1c.76-.63,2.52-2.11,2.91-2.46l.09-.07-.09.07c-.42.45-2.36,2.69-2.36,2.69l-.33.72a9.22,9.22,0,0,0,4.17-.2c2.62-3.26,4.4-6.8,4.42-8.68C406.71,344.62,400.44,344,398.3,341.94Z"/><polygon class="cls-58" points="392 344.65 392.47 345.25 395.4 343.69 392 344.65"/><path class="cls-58" d="M402.62,349.3l-.09.07Z"/><path class="cls-58" d="M399.62,351.83l.55.23s1.94-2.24,2.36-2.69C402.14,349.72,400.38,351.2,399.62,351.83Z"/><path class="cls-53" d="M398.22,329s-9.71-8.28-12.32-10.33c-1.29-.85-1.7-.47-3.06-.16s-2.52-.71.41-1.37c-3.78-1.46-3.75-1.93-3.58-2.22s2.59.54,2.59.54-2.62-2.37-2.07-2.87,2.1,1.4,2.1,1.4-1.26-2.1-.68-2.4,2.45,2.65,2.45,2.65-.47-1.65.18-1.86,1.26,2.74,2.44,4.23,14.24,9.88,14.24,9.88Z"/><polygon class="cls-59" points="401.26 332.17 397.64 329.14 401.5 325.07 403 326.69 403.14 329.13 401.26 332.17"/><path class="cls-60" d="M403.26,327.6a118.32,118.32,0,0,0-5.89,13.47c.72,2.95,8.89,4.61,11.67,2.85C409.7,337.44,410.55,321.89,403.26,327.6Z"/><path class="cls-53" d="M402,326.4s.15,3,1.36,2.4,1-4.19,1-4.19Z"/><path class="cls-61" d="M407,305.86s1.48-4.64,7.88-5.34c2.58-.35,2.83-.58,3.61-2l.87.06-1,2.07a3.49,3.49,0,0,1,3.61-1.09,9.32,9.32,0,0,0,.22,2.31l-2.2.63,1.94.18-.27,2.29a7.28,7.28,0,0,0-3.06.33,8.46,8.46,0,0,1,3.2.6l-2.12,4.24s-3.66-2.82-9.87-1.64A16.68,16.68,0,0,0,407,305.86Z"/><path class="cls-6" d="M396.55,328.5a2.94,2.94,0,0,1-2.37-1.2l-.88-1.23,6.82-6.64.53,3.37s0,.29.21,1.6l.08.64-.35.54c-1.28,2-2.6,2.92-4,2.92Z"/><path class="cls-6" d="M399,328.94a1.82,1.82,0,0,1-1.2-.45l0-.06a2.87,2.87,0,0,1-.94-2.24,3.61,3.61,0,0,1,1.36-2.48l3-2.34-.1,3.77c0,.39,0,1-.07,1.45-.18,1.94-1.16,2.35-1.95,2.35Z"/><path class="cls-6" d="M395.61,326.28s1.26,1.77,3.5-1.66c-.17-1.39-.2-1.55-.2-1.55Z"/><path class="cls-62" d="M399.3,325.09s-1.34,1.07-.29,2.08C399.22,327.36,399.28,325.91,399.3,325.09Z"/><path class="cls-6" d="M406.41,326.12a8.2,8.2,0,0,1-5.74-2.77l-1.51-1.78,2.13-1c.36-.16.35-.31.34-.38a.56.56,0,0,0-.14-.34l-2.86,1.95a14.69,14.69,0,0,1-2.71-4l-1.31.26v.07l-1.67.27-.32.05-.23.05h0l-1.26.22v.48l-2.41-2-.66-1.7-.1.89-2.11-3-.21-.61c.27-1.4-1.47-1.21-.8-1.37l-1.31-.54-1.8-.82,4.81-2.51a.91.91,0,0,0,.27,0,4.49,4.49,0,0,0,2.76-1.46l0,0,0,0a18.26,18.26,0,0,1,11.15-4.05,14.57,14.57,0,0,1,9.54,3.53l0,0,0,0a12.65,12.65,0,0,1,3.67,12.06,11.15,11.15,0,0,1-7,8.34l-.29.09Z"/><path class="cls-63" d="M409.19,306.92c-6.24-5.31-14.15-2.95-18.44.55-3.35,3-5.23,1.57-5.23,1.57l-.08.76a3.92,3.92,0,0,0,2.68.31c-3.72,3.65-2.46,6.85-2.46,6.85l3.74.36s0-2.73,1.19-3.58a5.24,5.24,0,0,0-.42,3.39h.18l2.3-.4a5,5,0,0,1,.81-3.28,7.43,7.43,0,0,0,.19,3.08l2.39-.47a3.6,3.6,0,0,1,.65-2.6c-.27,1.87,1.23,5.15,3.2,7.16-.71-1.59.23-2.87,1.89-2.51a2.17,2.17,0,0,1,.23,4.12,6.48,6.48,0,0,0,4.46,2.15C412.66,322.32,415.2,312.6,409.19,306.92Z"/><path class="cls-57" d="M402,322.22a2.17,2.17,0,0,0-.23-4.12c-1.66-.36-2.6.92-1.89,2.51-2-2-3.47-5.29-3.2-7.16a3.6,3.6,0,0,0-.65,2.6l-2.39.47a7.43,7.43,0,0,1-.19-3.08,5,5,0,0,0-.81,3.28l-2.3.4a11.61,11.61,0,0,0,1.4,4.8c.63,1.61-.92,1.19-.78,2.15s1.78.68,1.78.68a6.94,6.94,0,0,0,1.8,2.14c1.19-.24,2.74-1.23,4.29-3.38a9.45,9.45,0,0,1,0,4.33c3.29-.12,5.92-1.34,7.5-3.43l.12,0A6.48,6.48,0,0,1,402,322.22Z"/><path class="cls-64" d="M393.79,321c.28.75.23,1.47-.11,1.59s-.84-.38-1.12-1.13-.24-1.46.1-1.59S393.51,320.2,393.79,321Z"/><path class="cls-6" d="M393,320.78c.09.25.07.48,0,.52s-.27-.12-.36-.37-.07-.47,0-.51S392.9,320.54,393,320.78Z"/><path class="cls-65" d="M393.82,319.47s-2.69-2.83-2.31.9c0,0-.66-1.61.16-2.31S393.82,319.47,393.82,319.47Z"/><path class="cls-66" d="M400.86,319.91l.06-.23A.88.88,0,0,1,402,319a1,1,0,0,1,.6.77,1,1,0,0,0-.41-.47.64.64,0,0,0-.93.3.71.71,0,0,0,.31.91.41.41,0,0,0,.22.09.47.47,0,0,0,.16,0,.51.51,0,0,0,.36-.26.62.62,0,0,1-.59.63.86.86,0,0,1-.51-.18,1,1,0,0,0,.58.85l0,0c-.24,0-.61-.35-.71-.5A2.15,2.15,0,0,1,400.86,319.91Z"/><path class="cls-59" d="M404.09,324.5s.87,2.95,2.91,2.79,3-2.84,3-2.84A8,8,0,0,0,404.09,324.5Z"/><path class="cls-59" d="M407,327.29c-2,.16-2.91-2.79-2.91-2.79s-.42,5.11.85,7.24c1,1.52,3.8,1.4,4.75-1.91a10,10,0,0,0,.29-5.38S409,327.13,407,327.29Z"/><path class="cls-57" d="M404.51,325.37s.07-13.84-1.71-20.4c-2-.81-3.33-2.17-3-2.67s2.05.92,2.05.92l.29-.43s-2.17-4-1.58-4.31,2,2.71,2,2.71-.5-3.47.14-3.66,1.28,3.3,1.28,3.3.41-2.62,1.12-2.76,0,2.7,0,2.7,1.33-1.67,1.87-1.37-.93,2-.93,2a2.38,2.38,0,0,1-.49,2.89,119.3,119.3,0,0,1,3,22.22C407.28,328.13,405.2,327.21,404.51,325.37Z"/><path class="cls-66" d="M402.15,302.79a.57.57,0,0,1,.13-.24l.1-.1a.67.67,0,0,1,.14-.09.44.44,0,0,1,.16-.06,1.13,1.13,0,0,1,.18,0H403l.17.05a1,1,0,0,1,.25.14.8.8,0,0,1,.16.13l.05.06-.08,0-.18-.07-.12,0a.61.61,0,0,1-.13,0l-.14,0h-.15l-.14,0-.13,0a.61.61,0,0,0-.23.11A1,1,0,0,0,402.15,302.79Z"/><path d="M629.57,319.31V425.88a17.33,17.33,0,0,1-1.22,6.38,4.78,4.78,0,0,1-.26.62,17.44,17.44,0,0,1-6.92,7.88,17.22,17.22,0,0,1-9,2.51H599a17.37,17.37,0,0,1-15.91-10.39c-.09-.2-.18-.4-.26-.6a17.23,17.23,0,0,1-1.22-6.4v-72a1.7,1.7,0,0,0-.24-.85L568.7,332.42a1.6,1.6,0,0,0-1.38-.77H503.13a1.62,1.62,0,0,0-1.39.77l-12.68,20.64c-.38.63-.78,1.18-1.13,1.66-.09.12-.19.27-.29.42v70.31a20.45,20.45,0,0,1-1.16,6.89l-.21.54a16.61,16.61,0,0,1-6.3,7.88,15.42,15.42,0,0,1-8.53,2.51H458.26a17.39,17.39,0,0,1-15.9-10.39c-.08-.17-.16-.35-.22-.52a17.24,17.24,0,0,1-1.26-6.48V319.31a17.56,17.56,0,0,1,3.48-10.45l22.12-29.43a17.44,17.44,0,0,1,13.9-6.95H590.06a17.43,17.43,0,0,1,13.9,6.95l22.12,29.43A17.57,17.57,0,0,1,629.57,319.31Z"/><path class="cls-67" d="M590.06,280.36H480.38a9.51,9.51,0,0,0-7.6,3.8L450.67,313.6a9.5,9.5,0,0,0-1.91,5.71V425.89a9.5,9.5,0,0,0,9.51,9.5h13.16c5.25,0,8.33-4.69,8.33-9.94V353.9c0-1.76,1.66-3.47,2.58-5L495,328.3a9.47,9.47,0,0,1,8.09-4.53h64.2a9.5,9.5,0,0,1,8.1,4.53l12.68,20.63a9.52,9.52,0,0,1,1.41,5v72a9.5,9.5,0,0,0,9.5,9.5h13.17a9.5,9.5,0,0,0,9.5-9.5V319.31a9.55,9.55,0,0,0-1.9-5.71l-22.12-29.44A9.5,9.5,0,0,0,590.06,280.36Z"/><path d="M444.31,297l17.84-23.75a15.46,15.46,0,0,1,12.3-6.15H596a15.46,15.46,0,0,1,12.31,6.15L626,296.77v37.05l-24.7-32.88a8.09,8.09,0,0,0-6.46-3.23H475.66a8.13,8.13,0,0,0-6.47,3.22l-24.88,33.13Z"/><path class="cls-68" d="M604.41,276.19A10.53,10.53,0,0,0,596,272H474.45a10.53,10.53,0,0,0-8.42,4.21l-16.86,22.45v20.87L465.31,298a12.92,12.92,0,0,1,10.35-5.17H594.79A12.94,12.94,0,0,1,605.14,298l16,21.24V298.39Z"/><path class="cls-68" d="M440.62,343.32l-21,31.46h0L401.39,402c-7,0-17.63-.36-22.91-.51l39.67-59.29,12.1-18.1Z"/><polygon class="cls-68" points="688.54 406.06 665.95 406.38 650.86 382.29 650.86 382.27 653.31 349.82 688.54 406.06"/><polygon points="413.71 247.92 462.04 248.08 457.93 442.35 422.43 442.88 413.71 247.92"/><polygon class="cls-69" points="453.77 256.15 450.01 434.37 430.17 434.67 422.18 256.04 453.77 256.15"/><path d="M438.19,304.41a59.28,59.28,0,0,1-14.28-1.7,9.17,9.17,0,0,1-6.91-8.45l-1.44-33.5a9.11,9.11,0,0,1,9.1-9.51l27.19.54a9.13,9.13,0,0,1,8.93,9.25l-.48,32.88a9.09,9.09,0,0,1-7,8.73A66.52,66.52,0,0,1,438.19,304.41Z"/><path class="cls-70" d="M456.57,261l-.48,32.87a4.89,4.89,0,0,1-3.75,4.7,59.7,59.7,0,0,1-27.42.07,4.91,4.91,0,0,1-3.71-4.55l-1.45-33.49a4.91,4.91,0,0,1,5-5.12l27,.54A4.91,4.91,0,0,1,456.57,261Z"/><path class="cls-69" d="M729.44,380.88l-1.32,32.85a4.89,4.89,0,0,1-3.88,4.6,59.77,59.77,0,0,1-27.41-.63,4.89,4.89,0,0,1-3.58-4.64l-.59-33.53a4.9,4.9,0,0,1,5.12-5l27,1.23A4.9,4.9,0,0,1,729.44,380.88Z"/><path class="cls-69" d="M377,375.08l-1.13,27.82h0l-.2,5,0,.38v0c0,.14-.05.28-.07.4h0a4.84,4.84,0,0,1-3.77,3.77,61.73,61.73,0,0,1-11.57,1.29,56.22,56.22,0,0,1-15.84-1.93,4.87,4.87,0,0,1-3.58-4.63l-.59-33.52a4.9,4.9,0,0,1,5.12-5l27,1.23A4.91,4.91,0,0,1,377,375.08Z"/><path class="cls-71" d="M581.63,353.91v48.75h-94V355.14c.1-.15.2-.3.29-.42.35-.48.75-1,1.13-1.66l12.68-20.64a1.62,1.62,0,0,1,1.39-.77h64.19a1.6,1.6,0,0,1,1.38.77l12.69,20.64A1.7,1.7,0,0,1,581.63,353.91Z"/><path d="M414.63,251.56a5.52,5.52,0,0,1-4.69-8.41l16.48-26.74a13,13,0,0,1,22.16,0l16.47,26.74a5.52,5.52,0,0,1-4.69,8.41Z"/><path d="M423.76,264c-11.21,0-14.81-10.89-15.15-16.65v-.29c0-9,18.1-10.37,28.9-10.37s28.89,1.34,28.89,10.37v.29C466,253.11,462.44,264,451.23,264Z"/><path class="cls-72" d="M437.5,241.54c-13.28,0-24,2.47-24,5.52,0,0,.71,12.08,10.3,12.08h27.47c9.59,0,10.31-12.08,10.31-12.08C461.54,244,450.77,241.54,437.5,241.54Z"/><path class="cls-73" d="M383.16,348.73H337.43a.66.66,0,0,1-.56-1L353.35,321a8.16,8.16,0,0,1,13.89,0l16.48,26.74A.67.67,0,0,1,383.16,348.73Z"/><path class="cls-72" d="M360.29,343.57c-13.27,0-24,2.47-24,5.52,0,0,.72,12.08,10.31,12.08H374c9.59,0,10.3-12.08,10.3-12.08C384.33,346,373.57,343.57,360.29,343.57Z"/><path d="M631.37,431.43l.16-2.19,15.74.77c0,.89-.09,1.82-.2,2.84Z"/><path class="cls-74" d="M639.23,432c.08-.71.14-1.44.16-2.19Z"/><path d="M661.2,413.66a19.19,19.19,0,0,0-2.07,2.91,19.47,19.47,0,0,0-10-11.64l.71-9.38Z"/><path class="cls-73" d="M733.91,355H688.19a.66.66,0,0,1-.56-1l16.48-26.74a8.15,8.15,0,0,1,13.88,0l16.48,26.74A.66.66,0,0,1,733.91,355Z"/><path class="cls-72" d="M711.05,349.79c-13.28,0-24,2.47-24,5.52,0,0,.72,12.08,10.31,12.08h27.47c9.59,0,10.3-12.08,10.3-12.08C735.09,352.26,724.33,349.79,711.05,349.79Z"/><path class="cls-6" d="M556.66,359.71v14a2.3,2.3,0,0,1-2.29,2.29H514a2.3,2.3,0,0,1-2.29-2.29v-14A2.31,2.31,0,0,1,514,357.4h40.38A2.31,2.31,0,0,1,556.66,359.71Z"/><path d="M554.37,352.48H514a7.24,7.24,0,0,0-7.22,7.23v14a7.24,7.24,0,0,0,7.22,7.22h40.38a7.23,7.23,0,0,0,7.22-7.22v-14A7.23,7.23,0,0,0,554.37,352.48Zm2.3,21.18a2.31,2.31,0,0,1-2.3,2.3H514a2.31,2.31,0,0,1-2.29-2.3v-14a2.3,2.3,0,0,1,2.29-2.3h40.38a2.31,2.31,0,0,1,2.3,2.3Z"/><path class="cls-75" d="M556.67,359.71v14a2.31,2.31,0,0,1-2.3,2.3H514a2.31,2.31,0,0,1-2.29-2.3v-14a2.3,2.3,0,0,1,2.29-2.3h40.38A2.31,2.31,0,0,1,556.67,359.71Z"/><path class="cls-76" d="M433.29,312.24l-6.44-2,4.48,85.4H434Z"/><path class="cls-72" d="M466.85,277.06a11.34,11.34,0,0,1,8.84-4.19l119.87.53a11.36,11.36,0,0,1,9,4.45l7.22,9.41L598,279.38H467.66l-6.12,4.22Z"/><polygon class="cls-76" points="695.38 377.83 704.3 377.83 695.38 407.54 695.38 377.83"/><polygon class="cls-76" points="343.64 372.95 352.57 372.95 343.64 402.66 343.64 372.95"/><path d="M659.89,421.71a17.54,17.54,0,0,1-.2,2.64,17.91,17.91,0,0,1-3.21,7.88h-9.36l-.08,1.08,0,.05-.46,6.22a21.37,21.37,0,0,1-7,1.18H427.47a21.14,21.14,0,0,1-4.94-.58,20.39,20.39,0,0,1-11.91-7.81,18.5,18.5,0,0,1-3.28-7.88,18.19,18.19,0,0,1-.21-2.78,18.42,18.42,0,0,1,5.92-13.43,20.58,20.58,0,0,1,7.84-4.59,21.32,21.32,0,0,1,6.58-1H639.54c.63,0,1.26,0,1.87.09a20.66,20.66,0,0,1,7.75,2.18,19.5,19.5,0,0,1,10,11.64A17.91,17.91,0,0,1,659.89,421.71Z"/><path class="cls-70" d="M639.55,432.88H427.47c-6.88,0-12.46-5-12.46-11.17h0c0-6.16,5.58-11.16,12.46-11.16H639.55c6.88,0,12.45,5,12.45,11.16h0C652,427.88,646.43,432.88,639.55,432.88Z"/><path class="cls-73" d="M460.36,246.7H414.63a.66.66,0,0,1-.56-1L430.55,219a8.16,8.16,0,0,1,13.89,0l16.48,26.74A.66.66,0,0,1,460.36,246.7Z"/><path d="M613.32,248.11a5.52,5.52,0,0,1-4.69-8.41L625.11,213a13,13,0,0,1,22.15,0l16.48,26.74a5.52,5.52,0,0,1-4.69,8.41Z"/><path d="M657.29,256.45,653.93,301l-7.67,102.07-2.07,21c-1.07,10.77-2.63,21.41-4.28,32.11l-29.35-10.62.14-5c.11-3.46.27-6.95.44-10.33s.34-7,.43-10.45c.15-5.77.31-11.55.47-17.31,0-1.35.06-2.71.11-4.08q.35-13.81.74-27.65l1.69-63.47c.08-3.05.17-6.09.24-9.13q.23-7.8.43-15.62l.59-22.05.16-6.65a9.12,9.12,0,0,1,7-3.36,6.56,6.56,0,0,1,.76,0l26.91,2.21A9.13,9.13,0,0,1,657.29,256.45Z"/><path class="cls-69" d="M654.43,461.48q-2.26-2.37-6.6-2.37a14.89,14.89,0,0,0-3.59.39c-1,.27-2,.56-2.94.85l-2.58.85a7.84,7.84,0,0,1-2.5.4,3,3,0,0,1-1-.15c2.62-19.05,4.44-38.12,6-57.23-8.19-.17-16.35-1.06-24.37-.66-.22,3.91-.52,7.81-1,11.7-1.75,15.61-3.2,31.31-2.69,47,.3,9,3.24,16.32,12.89,18.11a54,54,0,0,0,9.95.77q10.71,0,15.67-2.94t5-9.79C656.69,465.39,655.93,463.07,654.43,461.48Z"/><path class="cls-69" d="M641.24,404.22q.94-11.49,1.79-23l5.81-77.16q1.75-23.42,3.52-46.83l-31.53-2.07q-.09,3.41-.17,6.81c-.17,6.23-.34,12.45-.51,18.7q-.36,13.38-.72,26.77-.4,15.56-.82,31.1-.43,15.84-.85,31.65c-.31,11.12-.26,22.26-.89,33.36C624.89,403.16,633.05,404.05,641.24,404.22Z"/><path d="M659.05,262.56l-2.52,32.79a9.15,9.15,0,0,1-7.52,8.28,66.74,66.74,0,0,1-11.15.93,60.83,60.83,0,0,1-18.21-2.7,9.18,9.18,0,0,1-6.36-8.86l.64-33.53a9.16,9.16,0,0,1,9.11-9,6.56,6.56,0,0,1,.76,0l26.91,2.21a9.14,9.14,0,0,1,8.34,9.79Z"/><path class="cls-70" d="M654.85,262.24,652.33,295a4.91,4.91,0,0,1-4,4.45,59.62,59.62,0,0,1-27.37-1.63,4.9,4.9,0,0,1-3.42-4.77l.64-33.52a4.91,4.91,0,0,1,5.31-4.8L650.36,257A4.91,4.91,0,0,1,654.85,262.24Z"/><path d="M622.45,260.55c-11.21,0-14.81-10.89-15.15-16.65v-.29c0-9,18.1-10.37,28.89-10.37s28.9,1.34,28.9,10.37v.29c-.34,5.76-3.94,16.65-15.15,16.65Z"/><path class="cls-72" d="M636.18,238.09c-13.27,0-24,2.47-24,5.52,0,0,.71,12.08,10.3,12.08h27.47c9.59,0,10.3-12.08,10.3-12.08C660.22,240.56,649.46,238.09,636.18,238.09Z"/><path class="cls-73" d="M659.05,243.25H613.32a.66.66,0,0,1-.56-1l16.48-26.74a8.16,8.16,0,0,1,13.89,0l16.48,26.74A.66.66,0,0,1,659.05,243.25Z"/><path d="M509.84,486.87a13.69,13.69,0,0,1-8.23-2.52,16.24,16.24,0,0,1-5.8-8.52,65.55,65.55,0,0,1-2.27-9.29c-.64-3.53-1.17-7.24-1.59-11s-.69-7.5-.84-11.1a66.11,66.11,0,0,1,.21-9.61,18.37,18.37,0,0,1,3.25-9c2.09-2.88,5.38-4.58,9.81-5.06a16.18,16.18,0,0,1,1.83-.11,14.85,14.85,0,0,1,7.6,2.06,26.16,26.16,0,0,1,6.78,5.86l.51.61a16,16,0,0,1,2.77-6.73c2-2.76,5.08-4.39,9.18-4.84a19,19,0,0,1,2.1-.12,13.69,13.69,0,0,1,8.23,2.52,16.36,16.36,0,0,1,5.8,8.52,66.13,66.13,0,0,1,2.28,9.29c.63,3.55,1.16,7.26,1.58,11s.69,7.51.84,11.11a66.23,66.23,0,0,1-.21,9.61,18.51,18.51,0,0,1-3.25,9c-2.09,2.87-5.39,4.57-9.81,5.06a16.16,16.16,0,0,1-1.83.1,14.75,14.75,0,0,1-7.6-2.06,26.09,26.09,0,0,1-6.78-5.85l-.51-.62a15.9,15.9,0,0,1-2.77,6.73c-2,2.76-5.08,4.39-9.18,4.84A19,19,0,0,1,509.84,486.87Z"/><path class="cls-77" d="M548.85,449.28c.4,3.69.68,7.29.82,10.82a61.85,61.85,0,0,1-.19,9,14.25,14.25,0,0,1-2.48,7q-2,2.82-6.85,3.34a10.76,10.76,0,0,1-6.84-1.4,21.87,21.87,0,0,1-5.68-4.93,55.09,55.09,0,0,1-5-7.07q-2.37-4-4.74-7.75l-.86.26a45,45,0,0,1,2.24,7.13,24.71,24.71,0,0,1,.63,7.55,12.16,12.16,0,0,1-2.2,6.24c-1.26,1.76-3.34,2.8-6.22,3.11a10.26,10.26,0,0,1-7.4-1.62,12.22,12.22,0,0,1-4.27-6.42,61.59,61.59,0,0,1-2.13-8.72c-.62-3.48-1.14-7.05-1.54-10.74s-.68-7.29-.82-10.81a61.77,61.77,0,0,1,.19-9,14.12,14.12,0,0,1,2.48-7q2-2.82,6.84-3.35a10.87,10.87,0,0,1,6.85,1.4,22.06,22.06,0,0,1,5.68,4.93,52.27,52.27,0,0,1,5,7.08q2.32,4,4.7,7.75l.86-.25a42.32,42.32,0,0,1-2.2-7.14,25.37,25.37,0,0,1-.59-7.56,12.16,12.16,0,0,1,2.2-6.24c1.26-1.76,3.34-2.79,6.22-3.11a10.26,10.26,0,0,1,7.4,1.62,12.22,12.22,0,0,1,4.27,6.42,62.11,62.11,0,0,1,2.13,8.73Q548.24,443.76,548.85,449.28Z"/><path d="M590.12,485.4c-7.82,0-13.69-1.22-17.93-3.73-4.84-2.86-7.39-7.18-7.39-12.49a17.93,17.93,0,0,1,3-10.68,11.49,11.49,0,0,1,5.63-4.31c-.47-.29-.93-.6-1.38-.92a19.07,19.07,0,0,1-5.14-5.54,16.84,16.84,0,0,1-2.23-8.94c0-6.25,2.23-11.23,6.63-14.79,4.2-3.4,10.5-5.05,19.26-5.05,7.82,0,13.69,1.22,17.93,3.73,4.84,2.85,7.39,7.14,7.39,12.41a18.11,18.11,0,0,1-3,10.69,11.35,11.35,0,0,1-6.08,4.51c.62.37,1.23.77,1.82,1.19a19.18,19.18,0,0,1,5.1,5.4,15.88,15.88,0,0,1,2.27,8.67,21.25,21.25,0,0,1-1.53,8.23,16.13,16.13,0,0,1-5.15,6.63,22.62,22.62,0,0,1-8.26,3.81A45,45,0,0,1,590.12,485.4Z"/><path class="cls-74" d="M590.28,445.48a3.09,3.09,0,0,0,1.62,2.66,22,22,0,0,0,4,2l5.16,2a24.17,24.17,0,0,1,5.16,2.78,15.21,15.21,0,0,1,4,4.23,11.81,11.81,0,0,1,1.61,6.41,17,17,0,0,1-1.21,6.61,11.83,11.83,0,0,1-3.83,4.91,18.24,18.24,0,0,1-6.73,3.07,41.05,41.05,0,0,1-9.91,1q-10.47,0-15.79-3.14T569,469.18a13.79,13.79,0,0,1,2.25-8.22,6.94,6.94,0,0,1,5.89-3.15,9.4,9.4,0,0,1,3.26.49,18.59,18.59,0,0,1,2.46,1.08c.75.41,1.52.78,2.3,1.13A6.92,6.92,0,0,0,588,461c1.61,0,2.41-.73,2.41-2.18a3,3,0,0,0-1.61-2.62,20.2,20.2,0,0,0-4-1.85c-1.58-.57-3.3-1.18-5.15-1.86a21.14,21.14,0,0,1-5.16-2.7,14.35,14.35,0,0,1-4-4.31,12.61,12.61,0,0,1-1.61-6.73q0-7.41,5.07-11.52t16.61-4.11q10.47,0,15.79,3.14t5.32,8.79a13.93,13.93,0,0,1-2.26,8.26,6.9,6.9,0,0,1-5.88,3.18,8.88,8.88,0,0,1-3.26-.52c-.89-.35-1.72-.73-2.5-1.13s-1.56-.77-2.34-1.09a7.53,7.53,0,0,0-2.86-.48C591.06,443.31,590.28,444,590.28,445.48Z"/><path d="M730.57,486a20.89,20.89,0,0,1-6.86-1.06,15.4,15.4,0,0,1-6.74-4.56,23.81,23.81,0,0,1-4.05-7.22,147.92,147.92,0,0,1-7.48-29.43,23.43,23.43,0,0,1,.11-8.27,15.32,15.32,0,0,1,3.73-7.23,22.46,22.46,0,0,1,7.21-5.06,59.4,59.4,0,0,1,10.2-3.46,52.5,52.5,0,0,1,12.7-1.89,22.07,22.07,0,0,1,5.16.55c6.54,1.58,8.91,5.8,9.73,9.06a14.6,14.6,0,0,1,.47,5.73,10.44,10.44,0,0,1-1.77,4.66,10.55,10.55,0,0,1-2.29,2.33,10.82,10.82,0,0,1,1.57,1.66A15.71,15.71,0,0,1,755,452.43a10.63,10.63,0,0,1-.57,2.17,9.58,9.58,0,0,1,3.18,1,10.92,10.92,0,0,1,3.71,3.24,14.71,14.71,0,0,1,2.33,5.26c.83,3.26.77,8.09-4.22,12.61-3.32,3-8.66,5.41-16.33,7.36a60,60,0,0,1-10.61,1.83C731.82,485.94,731.18,486,730.57,486Z"/><path class="cls-77" d="M709.61,443.08a19.15,19.15,0,0,1,.06-6.79A11.11,11.11,0,0,1,712.4,431a18,18,0,0,1,5.87-4.07,55.27,55.27,0,0,1,9.45-3.2q10.39-2.64,15.84-1.32t6.64,6a10.81,10.81,0,0,1,.38,4.1,6.27,6.27,0,0,1-1,2.8,6.15,6.15,0,0,1-2,1.8,10.48,10.48,0,0,1-2.53,1,25.6,25.6,0,0,1-4.1.71c-1.28.1-2.48.16-3.61.17l-3.07,0a10.42,10.42,0,0,0-2.39.27,4,4,0,0,0-1.56.73,2.48,2.48,0,0,0-.89,2.06,6,6,0,0,0,.12.8,5.31,5.31,0,0,0,.92,1.8,1.74,1.74,0,0,0,2,.61,18.31,18.31,0,0,0,1.81-.58l2.13-.79,2.2-.81c.74-.27,1.42-.49,2-.65a15.83,15.83,0,0,1,3.25-.49,6.21,6.21,0,0,1,2.78.5,5.73,5.73,0,0,1,2.26,1.84,9.78,9.78,0,0,1,1.57,3.55,9.58,9.58,0,0,1,.31,3.86,5.76,5.76,0,0,1-1.1,2.7,6.27,6.27,0,0,1-2.21,1.76,15,15,0,0,1-3.08,1.12,20.08,20.08,0,0,1-2.1.41c-.78.11-1.56.22-2.34.3s-1.53.19-2.25.29a15.4,15.4,0,0,0-1.87.35,1.76,1.76,0,0,0-1.48,1.54,5.51,5.51,0,0,0,.07,2.06,4.06,4.06,0,0,0,.28.76,2.44,2.44,0,0,0,.63.84,2.34,2.34,0,0,0,1.13.54,3.86,3.86,0,0,0,1.72-.1,11.07,11.07,0,0,0,2.23-.9l2.71-1.44c1-.53,2.08-1.06,3.25-1.58a24.67,24.67,0,0,1,4-1.33,11.1,11.1,0,0,1,2.69-.36,5.47,5.47,0,0,1,2.61.63,6.69,6.69,0,0,1,2.26,2,10.91,10.91,0,0,1,1.63,3.79q1.19,4.68-3,8.44T742,480a55.21,55.21,0,0,1-9.84,1.72,18.12,18.12,0,0,1-7.09-.78,11,11,0,0,1-4.92-3.32,19,19,0,0,1-3.3-5.94A141.5,141.5,0,0,1,709.61,443.08Z"/><path d="M614.23,547.29a48.58,48.58,0,0,1-9.07-1c-7.69-1.48-13.22-3.78-16.92-7.05-4.21-3.71-5.9-8.44-4.9-13.66a17.93,17.93,0,0,1,5-9.91,11.58,11.58,0,0,1,6.34-3.17c-.41-.37-.81-.76-1.19-1.17a18.79,18.79,0,0,1-4-6.4,16.89,16.89,0,0,1-.51-9.2c1.18-6.14,4.31-10.61,9.31-13.28a22.46,22.46,0,0,1,10.65-2.3,50.06,50.06,0,0,1,9.21,1c7.68,1.48,13.21,3.78,16.91,7,4.21,3.71,5.91,8.41,4.92,13.58a18.18,18.18,0,0,1-5,9.93,11.39,11.39,0,0,1-6.82,3.27c.54.49,1.07,1,1.57,1.52a19.55,19.55,0,0,1,4,6.27,15.9,15.9,0,0,1,.59,8.94,21.46,21.46,0,0,1-3.05,7.79,16.15,16.15,0,0,1-6.31,5.54,22.5,22.5,0,0,1-8.83,2.18C615.52,547.27,614.88,547.29,614.23,547.29Z"/><path class="cls-69" d="M612.84,507.16a3.09,3.09,0,0,0,1.08,2.92,22.6,22.6,0,0,0,3.54,2.69l4.69,3a23.61,23.61,0,0,1,4.54,3.7,15.12,15.12,0,0,1,3.12,4.91,11.74,11.74,0,0,1,.38,6.59,17,17,0,0,1-2.44,6.26,11.9,11.9,0,0,1-4.68,4.11,18.41,18.41,0,0,1-7.19,1.74,40.56,40.56,0,0,1-9.93-.84q-10.29-2-14.92-6.07t-3.55-9.7a13.78,13.78,0,0,1,3.76-7.65,7,7,0,0,1,6.37-2,9.88,9.88,0,0,1,3.12,1.09,21.4,21.4,0,0,1,2.21,1.53c.66.54,1.34,1.06,2,1.55a6.92,6.92,0,0,0,2.71,1c1.58.3,2.51-.26,2.78-1.68a3,3,0,0,0-1.08-2.88,20.63,20.63,0,0,0-3.57-2.57c-1.45-.85-3-1.78-4.72-2.79a21.37,21.37,0,0,1-4.55-3.63,14.58,14.58,0,0,1-3.11-5,12.6,12.6,0,0,1-.31-6.91q1.39-7.29,7.16-10.36t17.07-.91q10.29,2,14.92,6.06t3.57,9.63a14,14,0,0,1-3.77,7.69,6.94,6.94,0,0,1-6.38,2,9.11,9.11,0,0,1-3.11-1.13c-.8-.51-1.55-1-2.24-1.58s-1.39-1.05-2.09-1.51a7.47,7.47,0,0,0-2.72-1C614,505.17,613.11,505.74,612.84,507.16Z"/><path d="M479.13,546.8a8.5,8.5,0,0,1-8.48-8.51v-.73a72.35,72.35,0,0,1-8.4-1.88c-3.76-1.07-7.24-2.19-10.34-3.31l-.1,0a15.9,15.9,0,0,1-9.66-19.3l2.11-7.39q2-6.78,3.94-13.54c.8-2.7,3.21-10.93,11.95-10.93h.32a12.85,12.85,0,0,1,11.36,8,11.2,11.2,0,0,1,6.81-4.1l.25-.05a11.5,11.5,0,0,1,2.07-.2A11.19,11.19,0,0,1,492,494.53l0,.22c.34,2.83.68,5.94,1,9.26s.64,6.62,1,10.07c.31,3.18.59,6.46.86,10,.24,3.22.46,6.21.64,9,.1,1.28.17,2.48.23,3.59a8.42,8.42,0,0,1-6.55,8.69c-1.55.36-3.23.67-5,.92-1.44.21-2.94.38-4.45.49Zm-11.62-35.48c.59.29,1.23.57,1.91.85l.89.34c-.07-1.79-.14-3.51-.22-5.13,0-.94-.09-1.85-.14-2.73Z"/><path class="cls-78" d="M491.56,536.9a4.21,4.21,0,0,1-3.27,4.35c-1.47.34-3,.63-4.64.86-1.39.2-2.78.36-4.18.46a4.29,4.29,0,0,1-4.61-4.28v-4.36a0,0,0,0,0,0,0,68.56,68.56,0,0,1-11.41-2.26q-5.64-1.61-10.08-3.22l-.06,0a11.76,11.76,0,0,1-7.08-14.2c.71-2.46,1.4-4.92,2.11-7.39q1.95-6.76,3.93-13.51c1.2-4.09,3-7.91,7.91-7.91h.2c4.76.13,8.3,4.38,8.3,9a9.32,9.32,0,0,1-.34,2.5l-.54,1.5-5.39,14.69s0,0,0,0a23.42,23.42,0,0,0,5.45,3,35.37,35.37,0,0,0,6.8,2s.05,0,.05,0q-.17-5.85-.4-10.86c-.16-3.36-.32-6.28-.48-8.74-.05-.63-.1-1.23-.14-1.82a7,7,0,0,1,5.71-7.37l.31-.06a7,7,0,0,1,8.17,6v0c.34,2.87.68,5.94,1,9.18s.64,6.6,1,10,.61,6.76.85,9.95.45,6.18.64,9C491.43,534.64,491.5,535.82,491.56,536.9Z"/><path d="M475.79,485.4a13.15,13.15,0,0,1-9.73-3.84,17,17,0,0,1-4.48-8.83,79.41,79.41,0,0,1-1.07-8.51c-.25-3.22-.4-6.62-.45-10.09s0-7,.16-10.38.45-6.58.85-9.27a19.27,19.27,0,0,1,2.35-7,14.48,14.48,0,0,1,5.41-5.23,23.6,23.6,0,0,1,7.85-2.59,62.54,62.54,0,0,1,10.07-.7c9.52,0,16.46,1.87,21.23,5.73,5,4,7.48,10.13,7.48,18.14s-2.22,14.11-6.59,18.05c-4.11,3.69-10,5.57-18.1,5.74l0,.17c.08.58.17,1.26.26,2.05a27.76,27.76,0,0,1,.15,3.09,13.58,13.58,0,0,1-1.47,6.45,11.9,11.9,0,0,1-3.92,4.39,14.73,14.73,0,0,1-5,2.09A23.47,23.47,0,0,1,475.79,485.4ZM488.14,440a2.77,2.77,0,0,0-.32,1.5,3.18,3.18,0,0,0,.31,1.54,3.25,3.25,0,0,0,.29-1.54A3.16,3.16,0,0,0,488.14,440Z"/><path class="cls-79" d="M486.75,423.16q12.66,0,18.58,4.8t5.92,14.86q0,10.24-5.2,14.91t-16.48,4.68a4.59,4.59,0,0,0-2.7.52,2.3,2.3,0,0,0-.6,1.81,6.61,6.61,0,0,0,.12,1.21c.08.43.16.92.24,1.45s.16,1.17.24,1.9a24.33,24.33,0,0,1,.12,2.62,9.47,9.47,0,0,1-1,4.47,7.76,7.76,0,0,1-2.54,2.86,10.56,10.56,0,0,1-3.59,1.49,19.38,19.38,0,0,1-4.11.44,9,9,0,0,1-6.73-2.58,12.74,12.74,0,0,1-3.34-6.68,71,71,0,0,1-1-8c-.24-3.15-.39-6.42-.44-9.83s0-6.79.16-10.12.43-6.28.81-8.86a15,15,0,0,1,1.81-5.48,10.18,10.18,0,0,1,3.87-3.71,19.27,19.27,0,0,1,6.44-2.09A58.68,58.68,0,0,1,486.75,423.16Zm-3.14,18.29a6.59,6.59,0,0,0,1.25,4.19,4.14,4.14,0,0,0,6.57,0,6.83,6.83,0,0,0,1.2-4.19,6.68,6.68,0,0,0-1.2-4.15,4.22,4.22,0,0,0-6.57,0A6.45,6.45,0,0,0,483.61,441.45Z"/><path d="M458.1,487.4a21.07,21.07,0,0,1-2.69-.18c-4.38-.58-7.5-2.3-9.27-5.12-1.6-2.55-2.15-5.89-1.62-9.91a22.22,22.22,0,0,1,.55-2.77,10.58,10.58,0,0,1-1.52.1,16.27,16.27,0,0,1-2.13-.15,13.76,13.76,0,0,1-3.54-.91,23.31,23.31,0,0,1-.19,2.83c-.52,4-1.89,7.08-4.06,9.13a10.82,10.82,0,0,1-7.73,2.76,18.82,18.82,0,0,1-2.53-.18,16.75,16.75,0,0,1-6.12-1.92,13,13,0,0,1-4.41-3.93,15.22,15.22,0,0,1-2.3-5.16,26.13,26.13,0,0,1-.73-5.56c-.07-2.52,0-5.42.2-8.65s.52-6.49,1-9.8,1-6.54,1.56-9.64,1.28-6,2-8.46a25.44,25.44,0,0,1,2.21-5.28,16,16,0,0,1,3.63-4.43,13.88,13.88,0,0,1,5.18-2.7,14.73,14.73,0,0,1,3.95-.52,20.28,20.28,0,0,1,2.53.17A17.26,17.26,0,0,1,439,419.6a21.06,21.06,0,0,1,5.19,4.65,26.05,26.05,0,0,1,2.67,4.08,24.81,24.81,0,0,1,3.68-3.27,21.55,21.55,0,0,1,6.23-3.12,16.87,16.87,0,0,1,5-.75,18.5,18.5,0,0,1,2.34.15c4.91.65,8.49,2.72,10.64,6.16a21.12,21.12,0,0,1,3,10.66c.06,2.59,0,5.52-.25,8.72s-.55,6.43-1,9.72-1,6.55-1.57,9.68a76.14,76.14,0,0,1-2.1,8.48,27,27,0,0,1-2.13,5.14,15.49,15.49,0,0,1-3.56,4.39,13.14,13.14,0,0,1-5.21,2.65A14.72,14.72,0,0,1,458.1,487.4Z"/><path class="cls-75" d="M445.86,437.5a22.89,22.89,0,0,1,3-5,20.41,20.41,0,0,1,4.15-4,16.9,16.9,0,0,1,5-2.51,12.78,12.78,0,0,1,5.55-.45c3.62.47,6.16,1.88,7.61,4.21a16.87,16.87,0,0,1,2.33,8.56q.09,3.66-.24,8.3c-.22,3.08-.54,6.24-1,9.46s-.93,6.37-1.53,9.43a68.23,68.23,0,0,1-2,8,21.94,21.94,0,0,1-1.79,4.36,11,11,0,0,1-2.58,3.19,8.91,8.91,0,0,1-3.56,1.81A12.64,12.64,0,0,1,456,483c-3.09-.4-5.18-1.46-6.25-3.18s-1.41-4.08-1-7.12a20.44,20.44,0,0,1,1-4.17c.52-1.45,1.07-2.89,1.67-4.33s1.15-2.86,1.66-4.26a17.92,17.92,0,0,0,1-3.85,5.82,5.82,0,0,0-.12-3.1,1.44,1.44,0,0,0-1.06-.87,1.46,1.46,0,0,0-1.37.55,5.3,5.3,0,0,0-1,1.66,14.31,14.31,0,0,0-.61,2.2c-.16.79-.3,1.47-.43,2.05-.17.85-.38,1.7-.62,2.56a6.69,6.69,0,0,1-1.16,2.29,4.8,4.8,0,0,1-2.11,1.51,7.66,7.66,0,0,1-3.64.21,7.75,7.75,0,0,1-3.43-1.14,4.52,4.52,0,0,1-1.64-2,7,7,0,0,1-.49-2.5c0-.9,0-1.77.06-2.63,0-.6.07-1.29.12-2.1a14.29,14.29,0,0,0,0-2.28,6,6,0,0,0-.45-1.85,1.46,1.46,0,0,0-1.22-.89,1.43,1.43,0,0,0-1.25.57,5.8,5.8,0,0,0-.92,3,18,18,0,0,0,0,4c.13,1.48.29,3,.46,4.53s.33,3.08.45,4.61a20.35,20.35,0,0,1-.07,4.3q-.6,4.56-2.79,6.63c-1.45,1.38-3.72,1.86-6.81,1.46a13,13,0,0,1-4.61-1.42,8.94,8.94,0,0,1-3-2.68,10.86,10.86,0,0,1-1.66-3.75,21.8,21.8,0,0,1-.61-4.67c-.06-2.39,0-5.15.2-8.27s.5-6.28.92-9.51.93-6.35,1.52-9.39,1.23-5.73,1.92-8.08a21.28,21.28,0,0,1,1.84-4.39,11.87,11.87,0,0,1,2.66-3.27,9.77,9.77,0,0,1,3.62-1.88,12.07,12.07,0,0,1,4.79-.22,12.87,12.87,0,0,1,5.24,1.87,16.59,16.59,0,0,1,4.14,3.71,22,22,0,0,1,3,4.95,20.2,20.2,0,0,1,1.54,5.6Z"/><path d="M404.9,485.86a38,38,0,0,1-8.43-.95,26.63,26.63,0,0,1-8.17-3.35,25.2,25.2,0,0,1-6.77-6.22,27.06,27.06,0,0,1-4.47-9.43,50.68,50.68,0,0,1-1.36-7.2c-.31-2.53-.51-5.19-.6-7.92s0-5.53.13-8.36a77.57,77.57,0,0,1,.94-8.31,32.3,32.3,0,0,1,1.31-4.92,15.57,15.57,0,0,1,2.76-4.9,13.5,13.5,0,0,1,4.7-3.56,15.43,15.43,0,0,1,6.58-1.33,16.26,16.26,0,0,1,7.93,1.78,12.8,12.8,0,0,1,5.1,5.06c.13.22.24.44.35.66.11-.22.23-.44.35-.66a12.93,12.93,0,0,1,5.1-5.06,16.26,16.26,0,0,1,7.93-1.78,15.43,15.43,0,0,1,6.58,1.33,13.72,13.72,0,0,1,4.7,3.55,16.57,16.57,0,0,1,2.78,4.83,25.23,25.23,0,0,1,1.3,5,77.71,77.71,0,0,1,.93,8.27c.17,2.83.21,5.64.13,8.36s-.28,5.37-.6,7.92a50.27,50.27,0,0,1-1.36,7.19,27.78,27.78,0,0,1-4.4,9.41,24.49,24.49,0,0,1-6.81,6.26,27.45,27.45,0,0,1-8.2,3.34A38,38,0,0,1,404.9,485.86Z"/><path class="cls-74" d="M404.9,462.15a2.07,2.07,0,0,0,2.06-1.7,16,16,0,0,0,.52-4.59c0-.81,0-1.84-.08-3.1s-.12-2.63-.2-4.11-.16-3-.24-4.56-.12-3-.12-4.35a41.9,41.9,0,0,1,.44-6.32,15.12,15.12,0,0,1,1.65-5.12,8.74,8.74,0,0,1,3.47-3.43,12.11,12.11,0,0,1,5.88-1.24,11.3,11.3,0,0,1,4.79.92,9.47,9.47,0,0,1,3.27,2.46,12,12,0,0,1,2.05,3.59,20.54,20.54,0,0,1,1.09,4.23,71.86,71.86,0,0,1,.89,7.85q.24,4.08.12,8t-.57,7.54a46.59,46.59,0,0,1-1.25,6.61,23.15,23.15,0,0,1-3.7,8,20.26,20.26,0,0,1-5.64,5.2,22.78,22.78,0,0,1-6.93,2.82,33.47,33.47,0,0,1-15,0,22.26,22.26,0,0,1-6.89-2.82,20.68,20.68,0,0,1-5.64-5.2,22.84,22.84,0,0,1-3.75-8,46.59,46.59,0,0,1-1.25-6.61c-.3-2.42-.48-4.93-.56-7.54s0-5.26.12-8a71.89,71.89,0,0,1,.88-7.85,28.63,28.63,0,0,1,1.13-4.23,11.34,11.34,0,0,1,2-3.59,9.34,9.34,0,0,1,3.26-2.46,11.34,11.34,0,0,1,4.79-.92,12.17,12.17,0,0,1,5.89,1.24,8.72,8.72,0,0,1,3.46,3.43,14.9,14.9,0,0,1,1.65,5.12,41.86,41.86,0,0,1,.45,6.32c0,1.35,0,2.8-.08,4.35s-.12,3.08-.2,4.56-.17,2.85-.25,4.11-.12,2.29-.12,3.1a16,16,0,0,0,.53,4.59A2.06,2.06,0,0,0,404.9,462.15Z"/><path d="M362.36,486.06c-1.14,0-2.34-.05-3.54-.16a26.31,26.31,0,0,1-9.55-2.67,23.87,23.87,0,0,1-8.16-6.82,25.69,25.69,0,0,1-4.72-11.89c-.87-5.54-.29-10.21,1.73-13.89,1.52-2.78,4.69-6.31,11.12-7.32a18.05,18.05,0,0,1,2.69-.22,11.91,11.91,0,0,1,7.61,2.51.27.27,0,0,1,.08.07c-.05-.26-.11-.52-.16-.78-.34-1.59-.62-3.11-.83-4.49a48.25,48.25,0,0,1-.6-6.95,19.54,19.54,0,0,1,1.1-6.79,12.84,12.84,0,0,1,4.26-5.79,16.12,16.12,0,0,1,7.55-3,18,18,0,0,1,2.86-.24,14,14,0,0,1,3.85.52,13.71,13.71,0,0,1,5.19,2.79,16.29,16.29,0,0,1,3.5,4.34,26,26,0,0,1,2.07,4.78,81.11,81.11,0,0,1,2.2,8c.6,2.78,1.08,5.55,1.42,8.24s.55,5.36.64,7.91a50.75,50.75,0,0,1-.24,7.32,27.17,27.17,0,0,1-2.94,10,25,25,0,0,1-5.79,7.22,27.15,27.15,0,0,1-7.67,4.59,40.2,40.2,0,0,1-8.41,2.28A34.15,34.15,0,0,1,362.36,486.06Z"/><path class="cls-77" d="M364.35,462.17a2.05,2.05,0,0,0,1.77-2,16.07,16.07,0,0,0-.2-4.61c-.12-.8-.31-1.82-.56-3.06s-.53-2.58-.83-4-.63-2.93-.95-4.46-.58-2.95-.79-4.28a42.15,42.15,0,0,1-.54-6.32,14.73,14.73,0,0,1,.84-5.31,8.65,8.65,0,0,1,2.89-3.92,12.08,12.08,0,0,1,5.62-2.14,11.2,11.2,0,0,1,4.88.17,9.6,9.6,0,0,1,3.6,1.92,12.07,12.07,0,0,1,2.59,3.23,21.29,21.29,0,0,1,1.73,4,74.36,74.36,0,0,1,2.09,7.62q.87,4,1.36,7.87t.61,7.53a48.31,48.31,0,0,1-.21,6.72,22.83,22.83,0,0,1-2.47,8.46,20.92,20.92,0,0,1-4.81,6,23,23,0,0,1-6.49,3.87,34.86,34.86,0,0,1-7.51,2,32.23,32.23,0,0,1-7.8.21,22.12,22.12,0,0,1-8-2.25,19.51,19.51,0,0,1-6.71-5.64,21.23,21.23,0,0,1-3.89-9.95q-1.08-6.93,1.26-11.21t8.08-5.18q4.38-.69,7,1.42t3.91,7.46a24.14,24.14,0,0,0,1.3,4.41A2,2,0,0,0,364.35,462.17Z"/><path d="M688.28,485.4a34.74,34.74,0,0,1-7.84-.76,15.54,15.54,0,0,1-6.27-2.91,13.4,13.4,0,0,1-4-5.4,27.5,27.5,0,0,1-1.74-6.53c-.39-2.76-.67-5.68-.84-8.69s-.25-6-.25-9,.08-6,.25-9,.45-5.93.84-8.67a26.93,26.93,0,0,1,1.75-6.54,13.64,13.64,0,0,1,4-5.34,15.54,15.54,0,0,1,6.27-2.91,34.79,34.79,0,0,1,7.84-.75,51.8,51.8,0,0,1,14,1.77,29.82,29.82,0,0,1,11.47,6,27.06,27.06,0,0,1,7.5,10.62,45.16,45.16,0,0,1,0,29.75,27.09,27.09,0,0,1-7.5,10.61,30,30,0,0,1-11.47,6A52.2,52.2,0,0,1,688.28,485.4Zm7.48-38.22c0,.61-.06,1.28-.08,2,0,1,0,2,0,3s0,2,0,3c0,.72,0,1.39.08,2a14.62,14.62,0,0,0,0-10Z"/><path class="cls-80" d="M688.28,423.16a47.89,47.89,0,0,1,12.86,1.61,25.65,25.65,0,0,1,9.87,5.12,22.83,22.83,0,0,1,6.33,9,41.1,41.1,0,0,1,0,26.59,22.8,22.8,0,0,1-6.33,9,25.51,25.51,0,0,1-9.87,5.12,47.5,47.5,0,0,1-12.86,1.61,31.16,31.16,0,0,1-6.89-.64,11.33,11.33,0,0,1-4.59-2.1A9.22,9.22,0,0,1,674,474.7a23.49,23.49,0,0,1-1.45-5.52c-.38-2.64-.65-5.4-.81-8.3s-.24-5.82-.24-8.75.08-5.84.24-8.74.43-5.67.81-8.3a22.49,22.49,0,0,1,1.45-5.48,9.33,9.33,0,0,1,2.78-3.71,11.32,11.32,0,0,1,4.59-2.09A31.1,31.1,0,0,1,688.28,423.16Zm6.37,19.1a2.63,2.63,0,0,0-2.14.93,5.74,5.74,0,0,0-.92,3.18q-.09,1.22-.12,2.7c0,1,0,2,0,3.1s0,2.11,0,3.1.06,1.9.12,2.7a5.78,5.78,0,0,0,.92,3.19,2.62,2.62,0,0,0,2.14.92,5,5,0,0,0,4.67-2.66,17.84,17.84,0,0,0,0-14.5A5,5,0,0,0,694.65,442.26Z"/><path d="M664.43,484.7a13.15,13.15,0,0,1-9.74-3.83,17,17,0,0,1-4.47-8.84,77.49,77.49,0,0,1-1.16-9.42c-.24-3.59-.37-7.33-.37-11.13s.13-7.54.37-11.13a78.39,78.39,0,0,1,1.16-9.44,17,17,0,0,1,4.47-8.82,14.29,14.29,0,0,1,19.47,0,17.52,17.52,0,0,1,4.54,8.76,71,71,0,0,1,1.13,9.53c.22,3.61.33,7.34.33,11.1s-.11,7.49-.33,11.1a70.56,70.56,0,0,1-1.12,9.47,17.51,17.51,0,0,1-4.55,8.82A13.14,13.14,0,0,1,664.43,484.7Z"/><path class="cls-81" d="M664.43,422.47a9,9,0,0,1,6.73,2.58,13.28,13.28,0,0,1,3.42,6.69,68.47,68.47,0,0,1,1,8.9q.32,5.28.32,10.84t-.32,10.84a68.47,68.47,0,0,1-1,8.9,13.28,13.28,0,0,1-3.42,6.69,10.07,10.07,0,0,1-13.46,0,12.82,12.82,0,0,1-3.35-6.69,71.52,71.52,0,0,1-1.08-8.9q-.37-5.28-.37-10.84t.37-10.84a71.52,71.52,0,0,1,1.08-8.9,12.82,12.82,0,0,1,3.35-6.69A9,9,0,0,1,664.43,422.47Z"/><path d="M572,547.8a28.62,28.62,0,0,1-3.33-.19,15.62,15.62,0,0,1-6.55-2.24,13.66,13.66,0,0,1-4.57-5,27.62,27.62,0,0,1-2.4-6.31c-.68-2.71-1.27-5.58-1.75-8.56s-.86-5.92-1.17-8.9-.55-6-.69-9-.17-5.95-.06-8.7a26.56,26.56,0,0,1,1.06-6.69,13.56,13.56,0,0,1,3.44-5.73,15.55,15.55,0,0,1,5.94-3.54,34.88,34.88,0,0,1,7.72-1.57,60.41,60.41,0,0,1,6.2-.33,46.6,46.6,0,0,1,7.89.64,30,30,0,0,1,12,4.74,27.07,27.07,0,0,1,8.56,9.78,45,45,0,0,1,3.09,29.59,27,27,0,0,1-6.35,11.33,29.93,29.93,0,0,1-10.79,7.13,52.27,52.27,0,0,1-13.73,3.21A44.3,44.3,0,0,1,572,547.8Zm8-39c0,.61.08,1.28.13,2,.08,1,.17,2,.28,3s.22,2,.34,3c.1.73.2,1.4.29,2a14.56,14.56,0,0,0-1-9.94Z"/><path class="cls-79" d="M570.08,485.64a47.71,47.71,0,0,1,12.95.27A25.77,25.77,0,0,1,593.38,490a22.79,22.79,0,0,1,7.22,8.28,41,41,0,0,1,2.77,26.45,22.85,22.85,0,0,1-5.36,9.6,25.47,25.47,0,0,1-9.29,6.11,47.51,47.51,0,0,1-12.62,2.94,31.12,31.12,0,0,1-6.92.08,11.36,11.36,0,0,1-4.78-1.61,9.38,9.38,0,0,1-3.16-3.44,22.79,22.79,0,0,1-2-5.34c-.65-2.58-1.2-5.3-1.67-8.17s-.84-5.76-1.15-8.67-.52-5.82-.66-8.72-.17-5.68-.06-8.34a21.88,21.88,0,0,1,.87-5.6,9.41,9.41,0,0,1,2.38-4,11.28,11.28,0,0,1,4.35-2.56A31.41,31.41,0,0,1,570.08,485.64ZM578.39,504a2.61,2.61,0,0,0-2,1.14,5.77,5.77,0,0,0-.59,3.26c0,.81.09,1.71.16,2.7s.17,2,.29,3.09.23,2.1.36,3.08.26,1.88.4,2.68a5.7,5.7,0,0,0,1.25,3.06,2.57,2.57,0,0,0,2.22.7,5,5,0,0,0,4.37-3.13,18,18,0,0,0-1.5-14.42A5,5,0,0,0,578.39,504Z"/><path d="M554,547a13.09,13.09,0,0,1-9.73-3.84,16.94,16.94,0,0,1-4.48-8.83,77.94,77.94,0,0,1-1.16-9.43c-.24-3.59-.37-7.33-.37-11.13s.13-7.53.37-11.12a76.41,76.41,0,0,1,1.17-9.45,16.87,16.87,0,0,1,4.47-8.81,14.25,14.25,0,0,1,19.46,0,17.49,17.49,0,0,1,4.54,8.75,71.16,71.16,0,0,1,1.13,9.54c.22,3.6.33,7.34.33,11.09s-.11,7.49-.32,11.1a72.06,72.06,0,0,1-1.13,9.47,17.47,17.47,0,0,1-4.55,8.82A13.09,13.09,0,0,1,554,547Z"/><path class="cls-75" d="M554,484.73a9,9,0,0,1,6.73,2.58,13.28,13.28,0,0,1,3.42,6.69,67.15,67.15,0,0,1,1.05,8.91c.21,3.51.32,7.13.32,10.83s-.11,7.32-.32,10.84a67.15,67.15,0,0,1-1.05,8.91,13.28,13.28,0,0,1-3.42,6.69,10.07,10.07,0,0,1-13.46,0,12.74,12.74,0,0,1-3.34-6.69,69.88,69.88,0,0,1-1.09-8.91q-.37-5.28-.37-10.84c0-3.7.12-7.32.37-10.83a69.88,69.88,0,0,1,1.09-8.91,12.74,12.74,0,0,1,3.34-6.69A9,9,0,0,1,554,484.73Z"/><path d="M537.08,547c-4.63,0-9-2-12.84-5.82a29,29,0,0,1-2-2.23c-.17.37-.34.72-.53,1.07a13.19,13.19,0,0,1-4.78,5.12,13.46,13.46,0,0,1-7.07,1.86,13.11,13.11,0,0,1-9.73-3.84,16.93,16.93,0,0,1-4.47-8.83,74.12,74.12,0,0,1-1.16-9.43c-.25-3.59-.37-7.33-.37-11.13s.12-7.53.37-11.12a74.72,74.72,0,0,1,1.16-9.45,16.66,16.66,0,0,1,4.6-8.86c2.55-2.51,6-3.79,10.33-3.79s7.82,1.42,10.15,4.22a11.69,11.69,0,0,1,1.63,2.59l.5-.52a22.33,22.33,0,0,1,6-4.46,17,17,0,0,1,7.83-1.83c4,0,7.21,1.2,9.53,3.56s3.46,5.6,3.46,9.68a19.52,19.52,0,0,1-1.79,8.21,22.58,22.58,0,0,1-4.7,6.68,23.77,23.77,0,0,1-3.35,2.73,23,23,0,0,1,5.27,4.18c3.84,4.18,5.78,9.56,5.78,16,0,4.52-1.21,8.21-3.6,11A13,13,0,0,1,537.08,547Z"/><path class="cls-77" d="M528,511.65q9.36,1.7,14,6.77t4.67,13.13q0,5.25-2.58,8.22a8.79,8.79,0,0,1-7,3q-5.24,0-9.87-4.6t-7.7-12.81l-.48.16a26,26,0,0,1,.44,7A14,14,0,0,1,518,538a8.92,8.92,0,0,1-3.26,3.51,9.25,9.25,0,0,1-4.88,1.25,9,9,0,0,1-6.73-2.58,12.81,12.81,0,0,1-3.34-6.69,71.74,71.74,0,0,1-1.09-8.91q-.36-5.28-.36-10.84c0-3.7.12-7.32.36-10.83a71.74,71.74,0,0,1,1.09-8.91,12.55,12.55,0,0,1,3.42-6.69q2.63-2.58,7.38-2.58,11.35,0,8.38,16l.48.08a44.84,44.84,0,0,1,2.7-6,23.4,23.4,0,0,1,3.75-5.16,18.37,18.37,0,0,1,4.87-3.63,13,13,0,0,1,5.93-1.37c2.85,0,5,.77,6.53,2.3s2.25,3.77,2.25,6.73a15.27,15.27,0,0,1-1.41,6.45,18.25,18.25,0,0,1-3.83,5.44,18.87,18.87,0,0,1-5.56,3.78,16.12,16.12,0,0,1-6.69,1.41Z"/><path class="cls-82" d="M458,493.5a65.88,65.88,0,0,1-1.76,9.16q-1.16,4.48-2.66,8.85l-.39,1.09-.19.54-.09.26,0,.17a8.29,8.29,0,0,0-.29,1.89,7.73,7.73,0,0,0,.66,3.74,8.53,8.53,0,0,0,2.57,3.12,13.39,13.39,0,0,0,1.82,1.27,8.92,8.92,0,0,0,1,.55l1,.57a19.22,19.22,0,0,1-2.37-.24,12.32,12.32,0,0,1-2.33-.73,8.88,8.88,0,0,1-4-3.21,9.22,9.22,0,0,1-1.58-5.1,10.33,10.33,0,0,1,.27-2.69c0-.12.05-.21.1-.38l.1-.29.18-.55.37-1.09q1.5-4.38,3.35-8.62A67.17,67.17,0,0,1,458,493.5Z"/><path class="cls-82" d="M482.26,498.33a64,64,0,0,1,2.15,8.82c.52,3,.91,5.93,1.19,8.91s.45,6,.48,9a63.06,63.06,0,0,1-.49,9.07,64.51,64.51,0,0,1-2.15-8.83q-.78-4.44-1.19-8.91t-.47-9A62.89,62.89,0,0,1,482.26,498.33Z"/><g class="cls-83"><path class="cls-6" d="M519.8,444.12a25.24,25.24,0,0,1,4.94,2.7,43.07,43.07,0,0,1,4.29,3.41,41.85,41.85,0,0,1,3.81,3.95,24.41,24.41,0,0,1,3.15,4.66,25.24,25.24,0,0,1-4.94-2.7,40.36,40.36,0,0,1-4.29-3.41,41.75,41.75,0,0,1-3.8-4A24.92,24.92,0,0,1,519.8,444.12Z"/><path class="cls-6" d="M530.74,429.82a4.35,4.35,0,0,1,.79-3.54,4.65,4.65,0,0,1,3.67-1.85,5.59,5.59,0,0,1,3.6,1.34A7.63,7.63,0,0,1,540,427.1a7.05,7.05,0,0,1,.73,1.63,9.84,9.84,0,0,1-1.7-.29c-.51-.11-1-.2-1.44-.34a12.73,12.73,0,0,0-2.31-.31,4.73,4.73,0,0,0-1.92.43A19,19,0,0,0,530.74,429.82Z"/><path class="cls-6" d="M577.91,436.47a11.35,11.35,0,0,1,5.33-6.81,16.42,16.42,0,0,1,8.64-2.17,24.5,24.5,0,0,1,4.37.41c.71.14,1.41.34,2.1.54a20.44,20.44,0,0,1,2.06.63,40.29,40.29,0,0,1,3.89,1.78,42,42,0,0,1,3.57,2.33c-1.44-.18-2.79-.49-4.14-.78s-2.7-.47-4-.77-2.65-.38-4-.57l-1.95-.14c-.33,0-.65-.08-1-.08l-1,0a20.42,20.42,0,0,0-7.47,1.17A16.39,16.39,0,0,0,577.91,436.47Z"/><path class="cls-6" d="M580,462.08c-.84,1.23-1.57,2.3-2.16,3.32a8.63,8.63,0,0,0-1.13,2.89c0,.12-.06.23-.07.35V469a2.55,2.55,0,0,0,0,.73c0,.25,0,.51.06.78s.12.53.17.82a5.78,5.78,0,0,0,.23.86c.09.29.17.6.25.93a14.55,14.55,0,0,1,.61,2,9.38,9.38,0,0,1-1.95-1c-.27-.24-.55-.49-.81-.76a4.44,4.44,0,0,1-.73-.88,6.38,6.38,0,0,1-1.07-4.72,6.78,6.78,0,0,1,2.49-4.1A6.91,6.91,0,0,1,580,462.08Z"/><path class="cls-6" d="M737.4,425.78a5.09,5.09,0,0,1,3.46-1.58,5.47,5.47,0,0,1,3.94,1.33,6,6,0,0,1,1.92,3.6,5.93,5.93,0,0,1-.64,3.69,11.34,11.34,0,0,1-1-1.51c-.33-.45-.58-.91-.85-1.31a11.32,11.32,0,0,0-1.63-1.92,6.87,6.87,0,0,0-2.07-1.26A31.46,31.46,0,0,0,737.4,425.78Z"/><path class="cls-6" d="M750.41,462.85a5.5,5.5,0,0,1,4.25,1.43,5.13,5.13,0,0,1,1.41,2.2,5.25,5.25,0,0,1,.12,2.69,7.42,7.42,0,0,1-2.41,4,8.74,8.74,0,0,1-3.81,2,38.41,38.41,0,0,1,1.73-3.66,12.89,12.89,0,0,0,1.19-3,3.83,3.83,0,0,0-.29-2.57A14.48,14.48,0,0,0,750.41,462.85Z"/><path class="cls-6" d="M599.67,494.3A22.48,22.48,0,0,1,617.26,489a17.94,17.94,0,0,1,8.82,3.85,18.54,18.54,0,0,1,5.47,7.53,40.3,40.3,0,0,0-7-5.35,25.8,25.8,0,0,0-3.8-1.72,22.87,22.87,0,0,0-4-1,29.7,29.7,0,0,0-8.42,0A59.84,59.84,0,0,0,599.67,494.3Z"/><path class="cls-6" d="M500,430.86a12.51,12.51,0,0,1,5.33,4,12.36,12.36,0,0,1,2.71,6.43,11.07,11.07,0,0,1-1.63,6.86,12.35,12.35,0,0,1-4.89,4.53A41.8,41.8,0,0,0,504,447a13.37,13.37,0,0,0,.66-5.41,16.44,16.44,0,0,0-1.58-5.34A42.87,42.87,0,0,0,500,430.86Z"/><path class="cls-6" d="M453.54,437.63a13.23,13.23,0,0,1,3.14-4.85,10.88,10.88,0,0,1,5.33-3.07,6.4,6.4,0,0,1,3.53.24,6.16,6.16,0,0,1,2.75,2.1,8.88,8.88,0,0,1,1.55,5.73,23.39,23.39,0,0,0-3.49-3.92,4.21,4.21,0,0,0-3.68-.85,16.1,16.1,0,0,0-4.38,1.86C456.78,435.72,455.25,436.69,453.54,437.63Z"/><path class="cls-6" d="M411.73,435.14a8.4,8.4,0,0,1,2.64-3.78,7.92,7.92,0,0,1,4.57-1.9,6,6,0,0,1,4.87,2,6.7,6.7,0,0,1,1.67,4.42,25.43,25.43,0,0,0-3.36-2.38,5.57,5.57,0,0,0-3-.66,12.67,12.67,0,0,0-3.41.81C414.49,434.07,413.21,434.61,411.73,435.14Z"/><path class="cls-6" d="M379.69,433.16a28.57,28.57,0,0,1,4.25,7.85,32.92,32.92,0,0,1,1.91,8.82,23.84,23.84,0,0,1-1,9.1,18.28,18.28,0,0,1-2,4.16,14.83,14.83,0,0,1-3.08,3.33,34,34,0,0,0,1.58-4,31.3,31.3,0,0,0,.91-4.07,39.18,39.18,0,0,0,.21-8.25,78,78,0,0,0-1.1-8.35C380.88,438.9,380.28,436.08,379.69,433.16Z"/><path class="cls-6" d="M707.29,435.39a14.51,14.51,0,0,1,5.62,5.08,17.2,17.2,0,0,1,2.8,7.25,12.74,12.74,0,0,1,.16,2,10.58,10.58,0,0,1,0,1.95c-.07.65-.13,1.3-.22,1.94s-.31,1.26-.48,1.88l-.27.92c-.11.3-.24.59-.37.89-.26.58-.53,1.16-.8,1.72a22.56,22.56,0,0,1-2.16,3.1c.12-1.28.42-2.45.59-3.63.07-.6.14-1.19.23-1.77l.13-.86,0-.87c0-.57.08-1.14.14-1.71s0-1.13,0-1.69a10.45,10.45,0,0,0-.09-1.68,11.54,11.54,0,0,0-.18-1.66,26.11,26.11,0,0,0-1.78-6.49A40,40,0,0,0,707.29,435.39Z"/><path class="cls-6" d="M660.64,426.82c.17,4,.15,8,.14,12l-.12,11.86-.07,11.84c0,3.95.09,7.89,0,11.94a58.06,58.06,0,0,1-2.7-11.77,89.89,89.89,0,0,1-.65-12,102.54,102.54,0,0,1,.85-12A71.51,71.51,0,0,1,660.64,426.82Z"/><path class="cls-6" d="M588.37,496a21.07,21.07,0,0,1,7.76,6.94,23.58,23.58,0,0,1,3.93,9.92,24.68,24.68,0,0,1-.72,10.62,26.88,26.88,0,0,1-4.69,9.27,76.55,76.55,0,0,0,2.1-9.81,33.71,33.71,0,0,0,0-9.57,30.79,30.79,0,0,0-2.87-9.08A40,40,0,0,0,588.37,496Z"/><path class="cls-6" d="M550.33,494.38c.1,3.52.08,6.95.09,10.38l0,10.25,0,10.24c0,3.43.08,6.86-.11,10.38a50.54,50.54,0,0,1-2.53-10.18A67.56,67.56,0,0,1,547,515a70.26,70.26,0,0,1,.76-10.45A47.42,47.42,0,0,1,550.33,494.38Z"/><path class="cls-6" d="M512.75,490.09a52.26,52.26,0,0,0-1.35,5.63l-.27,1.41-.21,1.41c-.16.94-.24,1.89-.37,2.82a102.14,102.14,0,0,0-.65,11.32c0,1.9,0,3.79.13,5.69s.23,3.79.33,5.7c0,1,.17,1.9.25,2.86l.24,2.88c.19,1.92.45,3.84.53,5.82-.81-1.79-1.5-3.62-2.15-5.48s-1.13-3.77-1.49-5.71a54.52,54.52,0,0,1-.9-5.84c-.09-1-.21-2-.24-3l-.07-3A50.43,50.43,0,0,1,508,500.88a38.47,38.47,0,0,1,1.88-5.64A23.35,23.35,0,0,1,512.75,490.09Z"/><path class="cls-6" d="M527.74,494.38a9.45,9.45,0,0,1,2.9-4,8.41,8.41,0,0,1,2.24-1.37,6.55,6.55,0,0,1,2.88-.52,5.29,5.29,0,0,1,3,1.12,5.75,5.75,0,0,1,1.75,2.3,8.09,8.09,0,0,1,.46,5c-1-1.34-1.81-2.65-2.71-3.6a4.68,4.68,0,0,0-1.33-1.08,3.13,3.13,0,0,0-1.33-.38,9,9,0,0,0-3.55.79C530.67,493.14,529.3,493.78,527.74,494.38Z"/><path class="cls-6" d="M533.48,517.13a15.65,15.65,0,0,1,6.18,2.78,14.62,14.62,0,0,1,4.61,5.34,9.94,9.94,0,0,1,.67,7.32,10.19,10.19,0,0,1-4.21,5.49,20.28,20.28,0,0,0,1.61-6,10.35,10.35,0,0,0-1.1-5.33,23.1,23.1,0,0,0-3.35-4.86C536.54,520.29,535,518.77,533.48,517.13Z"/></g><polygon class="cls-76" points="627.93 311.74 621.37 402.66 618.63 440.76 617.95 440.76 619.03 402.66 621.68 309.23 627.93 311.74"/><path class="cls-84" d="M469.91,301.51a8.47,8.47,0,0,1,6.5-3.07l118.17-.3a6.3,6.3,0,0,1,5,2.39L611.81,316l-15.67-10.64H471.65l-10.57,6.82Z"/></g></g></g></svg>